<?xml version="1.0" encoding="UTF-8"?>
<svg id="Layer_2" data-name="Layer 2" xmlns="http://www.w3.org/2000/svg" viewBox="0 0 153.5 132.86">
  <defs>
    <style>
      .cls-1 {
        fill: #0083ca;
      }

      .cls-1, .cls-2, .cls-3, .cls-4, .cls-5, .cls-6 {
        stroke-width: 0px;
      }

      .cls-2 {
        fill: #ed1c24;
      }

      .cls-3 {
        fill: #e73b27;
      }

      .cls-4 {
        fill: #8a288e;
      }

      .cls-5 {
        fill: #4c494c;
      }

      .cls-6 {
        fill: #009444;
      }
    </style>
  </defs>
  <g id="Layer_1-2" data-name="Layer 1">
    <g>
      <g>
        <path class="cls-4" d="M95.62,21.89c-1.78-.66-2.98-1.99-2.94-3.29.03-1.14,1.02-2.09,1.16-2.22.96-.9,1.76-.68,2.22-1.51.4-.72-.02-1.17.27-2.05.2-.61.71-1.33,2.05-1.96.06.56.12,1.13.18,1.69.5.26,1.26.65,2.22,1.07,2.16.94,2.45.77,3.02,1.25,1.94,1.59,1.34,5.59,1.25,5.6,0,0-.02,0-.18-.62.22.76.54,1.27.8,1.6.49.63.85.72,1.51,1.51.53.64.83,1,.8,1.42-.08.98-1.87,1.49-1.96,1.51l-1.16,1.69c-.79-1.13-.78-1.76-.62-2.14.17-.41.49-.46.98-1.16.28-.4.73-1.06.53-1.42-.25-.46-1.41-.27-1.96-.18-1.63.27-1.72.83-2.94.98-1.53.19-2.42-.57-2.85-.09-.35.39-.04,1.2.09,1.51.61,1.54,1.69,1.84,4.18,3.74,2.83,2.16,2.95,2.94,4.54,3.29.43.1.91.15,1.16.53.65,1.02-.94,3.45-1.6,3.29-.42-.1-.15-1.14-.89-2.31-.57-.9-1.44-1.4-2.14-1.69-1.84.15-3.68.3-5.52.44.67,1.99,1.52,3.39,2.14,4.27,2.01,2.86,3.31,2.69,5.07,5.6.83,1.37,1.03,2.23,2.14,2.94,1.14.74,2.44.79,3.38.71-.71,1.54-1.91,3.44-4,4.54-2.07,1.08-4.03.87-4.27,1.87-.2.82.95,1.77,2.14,2.76.89.74,1.68,1.38,2.85,1.42.82.03,1.48-.24,1.87-.44-.56,1-1.42,2.27-2.67,3.56-1.14,1.17-2.28,2.01-3.2,2.58h-2.58c.38-.25.93-.67,1.42-1.33.62-.83.87-1.65.98-2.14.18-.47.36-.95.53-1.42-.48-2.7-2.3-4.22-3.65-4-.97.16-1.58,1.21-1.78,1.6-1.15.85-1.45,1.61-1.51,2.14-.07.55.14.61.36,2.22.15,1.16.11,1.63,0,2.05-.14.52,1.19,1.34.89,1.33-5.69-.09-7.74.4-8.45-.18-.22-.18,3.21-1.58,3.91-2.09.75-.54,1.33-.91,1.6-1.16.52-.48.42-2.49-.36-5.12-1.08-.21-2.76-.66-4.54-1.78-2.11-1.32-3.36-2.94-4-3.91.87-.5,2.17-1.39,3.38-2.85.76-.91,3.02-3.63,2.85-7.03-.16-3.04-.15-3.15.25-5.66.26-1.66-.72-2.42.01-5.29.27-1.04.39-1.92.44-2.49-.29-.29-.71-.74-1.16-1.33-.56-.74-1.56-2.24-2.67-5.96-1.02-3.43-.8-4.3-1.78-5.16-1.87-1.64-2.31-1.87-2.31-1.87-.35-.18-.82-.38-.8-.62.02-.33.88-.32,1.42-.89.49-.52.52-1.32.44-1.96.67,1,1.62,2.03,2.85,2.14,1.03.09,1.89-.5,2.05-.27.1.15-.13.59-1.51,1.87-.09.39-1.18,5.51,2.22,8.81,1.34,1.3,2.88,1.82,3.83,2.05Z"/>
        <polygon class="cls-2" points="76.94 8.4 77.83 10.2 79.82 10.49 78.38 11.89 78.72 13.86 76.94 12.93 75.17 13.86 75.51 11.89 74.07 10.49 76.06 10.2 76.94 8.4"/>
        <polygon class="cls-1" points="79.82 0 81.01 2.4 83.66 2.79 81.74 4.66 82.19 7.3 79.82 6.06 77.45 7.3 77.9 4.66 75.98 2.79 78.63 2.4 79.82 0"/>
        <polygon class="cls-6" points="79.82 15.26 80.68 16.99 82.59 17.27 81.2 18.62 81.53 20.53 79.82 19.63 78.11 20.53 78.43 18.62 77.05 17.27 78.96 16.99 79.82 15.26"/>
        <path class="cls-4" d="M71.26,11.43c.09-.04.2-.08.32-.15.34-.17.57-.08.81-.09.37-.03-.28.61-.06.93.38.57,1.01.75.68,1.18-.26.34-.41.26-.55.55-.28.59.26,1.11-.04,1.55-.18.26-.42.14-.63.46-.18.28-.2.66-.08.97.1.27-.56.4-.47.47-.96,1.86-1.55,3.07-2.01,3.66-1.92,2.48-1.73,2.51-2.39,4.32-.17.48-.13,1.24-.7,1.31.33.39.13,1.19-.03,2.05-.14.78-.61,1.37-.48,2.13.1.57.43,5.97.36,6.53-.11,1,.07.71-.24,1.11-.4.52.1,1.28-.14,1.77-.25.51-.03,1.07.08,1.43.36,1.17-.03,1.69-.34,4.33-.11.94-.22,1.65-.21,3.34-.43-.06-.87.53-1.3.48-.04,1.05-.2,1.84-.34,2.35-.09.36-.6.59-.71.83-.29.61-.61.87-.77,1.05-.27.31-1.01,1.7-1.71,3.07-.37.74-.61,1.2-.63,1.89-.03,1.31.77,2.28.97,2.52.95,1.12,2.09,1.26,2.02,1.6-.08.37-1.56.38-2.27.34-.81-.05-1.46-.21-1.89-.34-1.61-.95-2.38-2.67-3.99-3.63q.84-.77,1.68-1.54c.06-.35,1.03-.39,1.27-.96.94-2.2.31-2.59,1.12-4.03.99-1.76,1.64-1.82,1.73-3.06.09-1.19-1.8-3.02-2.01-3.72-.35-1.16-2.75-7.81-1.74-10.19.2-.47.62-1.14,1.26-1.89-.24-.45-.61-1.04-1.18-1.64-.54-.57-.28-1.13-.7-1.39.11-.58-.59-1.28-.72-2.31-.15-1.13,2.46-2.84,1.13-2.39-.38-.12-3.51-.72-4.24-1.93-1.14-1.91-.05-4,.08-4.24,1.22-2.24,3.39-2.78,3.65-2.81,2.72-.39,5.48,3.06,5.43,4.38-.03.89-.01,1.29-.01,1.29-.29.31-1.29.82-1.27.98.02.18,1.74-.27,2.02-.23.35.05.37-.29,1.04-.39.17-.22,1.66.12,1.99-.31,1.59-2.1,2.09-2.99,3.06-4.28,1.01-1.35.92-1.94,1.3-2.96.21-.56.65-.63.69-.84.37-1.77-.3-2.87.27-3.27.24-.17.4-.1.85-.27"/>
      </g>
      <g>
        <path class="cls-3" d="M1.98,53.1c.23.19.48.49.76.89l.14.15,2.36,3.5.43.63.41.51.44.71c.12.27.34.57.65.91l.48.79.37.46,1.57,2.41.25.31c.27.36.47.65.58.86l1.66,2.45c.16.15.3.36.43.63l.55.87.41.54,5.17,7.56.38.55,2.67,3.94c.1.16.27.36.51.61l.45.8.25.28.17.32c.07.05.15.15.25.31l2.52,3.73.25.28.17.32,1.37,1.92.17.32.38.55c.27.36.47.68.6.95l.24.22.28.45c.1.16.19.39.26.68l-1.2.64c-.38.14-.84.37-1.37.69l-.24.13-.89.41c-.05.07-.15.12-.32.17l-1.68.92-.4.21-.41.18-1.61.82-.77.45-.61.16-1.06-1.45c-.24-.25-.37-.43-.41-.54l-.21-.23-.56-.75-.24-.22-.28-.48-1.03-1.28-7.91,1.91c-.13.7-.15,1.52-.05,2.45v.26s.02,1.24.02,1.24c.03.42.03.94,0,1.54v.35s-1.62.39-1.62.39l-.18-.03-.78.19-1.3.22c-.51.07-.95.11-1.32.13l-3.02.54c-.12-.5-.14-1.09-.06-1.76l.13-3.19.04-.65v-.35s.08-2.28.08-2.28v-.35s.08-2.28.08-2.28c.08-.44.1-.99.04-1.64l.04-.65.08-.36-.05-.28.03-.53.09-.83-.02-.46.28-7.35.03-1.02.27-6.01v-.35s.05-.56.05-.56v-.35c-.02-.36,0-.79.07-1.29l.09-2.9v-.38s.12-2.9.12-2.9l.04-.99.29-6.21-.04-.25.08-.36.09-2.92ZM7.74,74.44l.1.77-.04.99.07.25-.05.56.12,1.96c0,.29,0,.5-.04.65l.08.33.06,2.43v.43c0,.66,0,1.23.04,1.71v.99s.02.52.02.52l.03.55,1.33-.05,1.3-.22c.19,0,.43-.02.71-.09l.9-.03c.28-.07.48-.08.6-.04l.24-.16c-.14-.38-.36-.81-.65-1.29l-.23-.49-.4-.98c-.22-.37-.42-.8-.6-1.3l-.18-.41-.69-1.37-.17-.32-.46-1.17-.12-.21-1.68-3.59-.07-.25-.24-.19Z"/>
        <path class="cls-3" d="M42.88,65.15l.52-.02c.05.36.04.74-.04,1.13l-.1,1.05-.06.52-.09.84v.29c-.05.06-.07.16-.06.29l-.1,1.08-.05.35-.08.38-.04.75c-.08.32-.12.67-.1,1.05-.08.35-.13.81-.16,1.37l-.06.24c0,.29-.02.64-.1,1.05v.23s-.11.73-.11.73c-.03.25-.05.5-.04.75l-.12.53-.06.52-.03.61c-.05.29-.06.54-.04.75-.05.04-.08.22-.06.52l-.04.44c-.05.25-.1.46-.14.62.01.31-.02.66-.1,1.05l-.04.52-.06.52-.17,1.51-.04.44-.06.32c0,.29-.02.64-.1,1.05l-.16,1.66-.05.38-.07.44.03.29-.14.62-.03.61-.05.67-.07.47-.17,1.25.03.31c-.09.26-.13.58-.11.96l-.05.38c-.04.16-.06.36-.06.61l-.12.53-.06.61-.86-1.18-.16-.13c-.6-.86-1.16-1.62-1.69-2.26l-.14-.27c-.47-.53-.88-1.07-1.22-1.61l-.13-.13-.17-.3-.62-.8-.26-.26-1.83-2.56-.16-.13-.8-1.16-.23-.29.1.45.09.65c.12.3.19.55.19.76l.08.28.09.31c.08.4.14.69.2.87l.09.31.36,1.64c.06.24.13.41.19.5v.32c.11.18.18.42.19.73.11.33.19.73.26,1.19l.19.44v.29s.37,1.49.37,1.49c.1.3.2.69.29,1.18l.18.67.08.51-.87.2h-.23s-1.27.29-1.27.29l-.43.07-.31.03-.37.09c-.85.18-1.56.3-2.15.38l-.37.09-.45.1-.11-.82-.11-.51-.08-.54-.11-.51c-.06-.44-.11-.81-.14-1.11l-.07-.14c-.07-.51-.11-.91-.12-1.2-.13-.35-.2-.8-.22-1.33l-.11-.54-.08-.28-.34-2.67-.07-.17-.02-.52c-.06-.05-.11-.21-.15-.48-.04-.27-.06-.55-.07-.86l-.07-.14-.02-.46-.11-.22-.02-.52c-.05-.15-.08-.35-.09-.6l-.11-.54-.29-1.84-.03-.29-.09-.31-.02-.52c-.11-.35-.17-.8-.19-1.34l-.11-.54-.08-.28-.02-.46-.11-.22-.1-1.03-.11-.83-.11-.54-.09-.37c-.02-.38-.08-.88-.2-1.48l-.02-.23-.11-.82-.11-.51-.08-.51-.03-.31c-.06-.4-.12-.74-.19-1.02l-.03-.31-.19-1.05v-.37s-.1-.37-.1-.37l-.11-.8c.31.22.62.56.93,1l.87.92.16.21c.21.19.45.46.71.8l.62.72c.11.14.29.34.55.58l.4.51.26.29.84.93.88,1.01.32.29.78.93.55.58c.22.29.4.5.55.64l1.11,1.31c.21.23.41.42.57.58l1.17,1.36.32.37c.26.28.46.49.61.63l.88,1.01.39.45-.21-4.88c.04-.39.04-.89,0-1.5l-.18-4.53.04-.46-.24-5.45c.35-.17.72-.28,1.12-.34.29-.12.72-.24,1.26-.35.28-.07.64-.19,1.09-.36h.32s.72-.27.72-.27l.37-.09c.64-.12,1.17-.27,1.57-.44Z"/>
        <path class="cls-3" d="M45.06,61.02c-1.12-2.15-.57-4.09,1.64-5.82,3.24-1.46,5.49-.87,6.75,1.77.76,2.72-.48,4.6-3.72,5.63-1.77.28-3.32-.25-4.67-1.58ZM45.95,65.11c.73.04,1.6.26,2.62.65l1.16.23c.52.13.98.28,1.37.45l3.11.77.17,2.26-.04.4.21,1.31-.1.38c.16.53.22,1.17.18,1.91l.3,3.14-.04.32.16,1.46-.05.23.18,1.28-.06.61.21,1.28-.02.69.3,3.14-.04.43.28,2.89-.06.49.36,3.34-.19.24c-.65.09-1.39.06-2.22-.09-1.14-.17-2.12-.27-2.94-.29l-.67-.11-.46-.04-3.71-27.38Z"/>
        <path class="cls-3" d="M79.39,60.77l.14-.03,6.14,27.13-7.81,1.5-1.03-9.56-3.31,10.84-7.35-8.1-1.56,7.84-6.02-.06,3.74-25.63,8.72,15.48,8.24-19.25.12-.17Z"/>
        <path class="cls-3" d="M91.68,63.62c.32.03.75,0,1.27-.1,14.39.18,18.78,7.12,13.17,20.81-.14.31-.27.69-.38,1.12,1.29,3.68,3.78,5.42,7.48,5.23-.09.43-.26.95-.5,1.54l-.92,2.05-.25.64-.33.81c-3.66.17-6.69-1.34-9.09-4.56-2.12,1.74-4.67,2.35-7.63,1.84-3.2-.71-5.68-2.7-7.44-5.97-1.81-4.29-1.06-8.21,2.25-11.75,3.51-2.57,7.31-2.63,11.38-.2l.25-.56c.72-4.08-1.7-6.1-7.27-6.04h-1.04l-.18.1-.6-.05-.58.04-.67.15-.66.03-.38.06.94-2.31.12-.36.36-.83.15-.36.57-1.3ZM100.37,81.24c-.21-2.05-1.38-3.36-3.5-3.92-2.71.54-3.94,2.28-3.69,5.22.69,2.8,2.4,3.74,5.15,2.82,1.29-.97,1.97-2.34,2.04-4.12Z"/>
        <path class="cls-3" d="M126.12,55.14c.15.04.25.12.31.22l-.05.89-.04.46.02.24-.08,1.26c-.05.19-.06.44-.03.75-.02.25-.04.42-.05.51l-.06.8v.32s-.13,1.46-.13,1.46l.02.24-.07,1.21c-.09.33-.11.71-.05,1.12,0,.29-.02.61-.06.95l-.06.22c0,.35-.02.75-.07,1.21v.67s-.06.51-.06.51c-.03.34-.04.59-.03.75.01.16,0,.33-.05.51l.02.84,2.36-.63.48-.13.24-.02.64-.22.39-.06c.06-.03.17-.05.33-.07l1.3-.35c.27-.09.61-.17,1.02-.22l.24-.02-.12.82-.05.51-.05.51-.05.51v.46s-.07.75-.07.75c-.05.22-.07.4-.05.51l-.04.28-.19,1.62c0,.25-.05.56-.14.94l-.08.36-.57.15-.19.12-1.37.43-.19.12-.39.11-.67.22-.59.23c-.27.09-.48.17-.64.22l-1.31.44c-.32.07-.71.2-1.16.4l-.1,1.64-.05.51c0,.25.01.43.04.53l-.08.31s.04.14.01.29l-.1,1.64-.03.37c0,.66-.04,1.23-.12,1.72l-.16,3.14-.05.51c.03.31.04.54.03.69-.01.14-.03.39-.07.73v.46s-.12,1.64-.12,1.64l-.05.51-.04.43.02.24-.03.75c-.02.25-.04.42-.07.53-.03.1-.03.2,0,.3l-.04,1.18-.04.46-.04.43-.03.37v.46s-.09.89-.09.89v.99c-.03.29-.06.5-.1.65l-3.72.45-.33.09-.37-.03-1.1.18h-.99c.09-.34.11-.71.05-1.13.03-.31.06-.55.11-.74l-.04-.53.04-.46.07-.28v-.38s.01-.29.01-.29l.06-.6.1-1.64v-.43s.04-.37.04-.37c0-.66.04-1.23.12-1.72l.04-.46.05-1.5v-.38c.11-.62.14-1.14.09-1.55l.04-.46.1-1.03.05-.51.05-1.5.03-.37c.02-.75.06-1.37.14-1.86-.02-.35,0-.79.08-1.32.02-.25.02-.46,0-.64-.01-.18.01-.38.07-.63-.01-.31,0-.56.06-.75l-.04-.53.04-.46c.02-.15.01-.33-.04-.53l-3.53.51-.24.08-1.24.16c-.23.08-.48.12-.77.12l-.56.09-1.1.18c-.35.02-.77.1-1.25.22-.25,0-.54.03-.86.1l1.71-7.08.95-.15c.14-.02.35-.06.63-.14l2.77-.48s.15-.06.31-.1c.16-.03.35-.05.56-.06l2.69-.55.17-2.85v-.29s.01-.37.01-.37l.09-2.33.03-.37v-.38s.1-1.03.1-1.03l.04-.43c0-.66.04-1.2.1-1.64l.02-.69.05-.51c-.03-.72.02-1.67.14-2.85-.01-.29,0-.64.04-1.04l1.11-.27c.21.01.48-.02.8-.11l3.94-.71.48-.1.71-.12Z"/>
        <path class="cls-3" d="M132.33,88.06c-.2-8.62,3.27-13.42,10.42-14.4,6.12.14,9.67,3.38,10.65,9.71.08.53.11,2.02.09,4.49l-1.34.08-.63.04-.62.04-.62.04-.54.06-.8.03-.34.07-.71.02-1.97.12c-.47.07-1.06.11-1.79.1l-.89.04-.63.04-.51.03-.54.06-1.78.22c-1.08,3.09-.4,5.23,2.04,6.42,3.03.48,6.19-.06,9.5-1.62l-.22,1.92-.14.62-.07.86-.11.36-.28,2.2c-.25.14-.58.28-1,.42l-1.32.26-.54.06-1.53.13c-.23-.01-.53,0-.88,0h-.26l-.99.07-3.58-.27-1.06-.26c-4.42-2.23-6.76-6.22-7.01-11.95ZM146.91,82.75c-.28-2.43-1.77-3.54-4.46-3.31-1.72,1.13-2.45,2.94-2.18,5.45l6.95-.6-.31-1.54Z"/>
      </g>
      <path class="cls-3" d="M19.94,117.61c7.81,2.08,23.2,5.53,43.98,6.06,30.29.77,52.32-5.15,59.69-7.34-9.55,2.25-29.83,6.27-56.79,6.06-21.18-.16-37.57-2.87-46.88-4.79Z"/>
      <g>
        <path class="cls-3" d="M33.18,112.01c-1.62,0-2.87-.54-4.09-1.62l.49-.57c1.12,1.03,2.15,1.51,3.64,1.51s2.57-.86,2.57-2.02v-.03c0-1.07-.57-1.7-2.87-2.16-2.44-.49-3.42-1.32-3.42-2.86v-.03c0-1.51,1.38-2.67,3.26-2.67,1.48,0,2.45.41,3.48,1.23l-.48.59c-.96-.83-1.92-1.15-3.03-1.15-1.49,0-2.48.86-2.48,1.92v.03c0,1.07.55,1.73,2.96,2.22,2.35.48,3.34,1.32,3.34,2.8v.03c0,1.64-1.41,2.77-3.37,2.77Z"/>
        <path class="cls-3" d="M42.88,112.04c-2.19,0-3.79-1.77-3.79-3.85v-.03c0-2.08,1.61-3.87,3.82-3.87s3.79,1.77,3.79,3.85v.03c0,2.08-1.61,3.87-3.82,3.87ZM45.93,108.16c0-1.79-1.33-3.21-3.05-3.21s-3.02,1.44-3.02,3.18v.03c0,1.78,1.33,3.21,3.05,3.21s3.02-1.44,3.02-3.18v-.03Z"/>
        <path class="cls-3" d="M52.89,112.04c-2.13,0-3.77-1.77-3.77-3.85v-.03c0-2.08,1.65-3.87,3.77-3.87,1.39,0,2.26.64,2.96,1.36l-.51.52c-.64-.65-1.36-1.22-2.47-1.22-1.68,0-2.99,1.41-2.99,3.18v.03c0,1.78,1.35,3.21,3.05,3.21,1.04,0,1.86-.54,2.48-1.23l.49.44c-.75.86-1.65,1.47-3.02,1.47Z"/>
        <path class="cls-3" d="M58.67,102.53v-.97h.88v.97h-.88ZM58.76,111.86v-7.4h.71v7.4h-.71Z"/>
        <path class="cls-3" d="M68.08,111.86v-1.23c-.51.71-1.42,1.41-2.83,1.41s-2.86-.78-2.86-2.32v-.03c0-1.54,1.32-2.41,3.24-2.41,1.03,0,1.74.13,2.45.32v-.32c0-1.49-.91-2.26-2.44-2.26-.9,0-1.64.25-2.32.59l-.26-.62c.81-.38,1.61-.64,2.63-.64,1.9,0,3.09.99,3.09,2.9v4.61h-.7ZM68.1,108.25c-.62-.16-1.45-.33-2.51-.33-1.57,0-2.44.7-2.44,1.73v.03c0,1.07,1.02,1.7,2.15,1.7,1.51,0,2.8-.93,2.8-2.28v-.84Z"/>
        <path class="cls-3" d="M72.17,111.86v-10.59h.71v10.59h-.71Z"/>
        <path class="cls-3" d="M86.28,112.04c-2.9,0-5.05-2.31-5.05-5.22v-.03c0-2.87,2.15-5.25,5.08-5.25,1.81,0,2.9.67,3.95,1.63l-.54.55c-.89-.86-1.9-1.49-3.42-1.49-2.44,0-4.28,1.99-4.28,4.54v.03c0,2.57,1.87,4.57,4.3,4.57,1.47,0,2.47-.57,3.5-1.58l.51.49c-1.07,1.06-2.23,1.77-4.03,1.77Z"/>
        <path class="cls-3" d="M98.04,111.86v-1.23c-.51.71-1.42,1.41-2.83,1.41s-2.86-.78-2.86-2.32v-.03c0-1.54,1.32-2.41,3.24-2.41,1.03,0,1.74.13,2.45.32v-.32c0-1.49-.91-2.26-2.44-2.26-.9,0-1.64.25-2.32.59l-.26-.62c.81-.38,1.61-.64,2.63-.64,1.9,0,3.09.99,3.09,2.9v4.61h-.7ZM98.06,108.25c-.62-.16-1.45-.33-2.51-.33-1.57,0-2.44.7-2.44,1.73v.03c0,1.07,1.02,1.7,2.15,1.7,1.51,0,2.8-.93,2.8-2.28v-.84Z"/>
        <path class="cls-3" d="M105.95,105.13c-1.71,0-3.21,1.29-3.21,3.7v3.03h-.71v-7.4h.71v2.1c.58-1.32,1.81-2.28,3.28-2.22v.78h-.07Z"/>
        <path class="cls-3" d="M111.36,111.37c1.15,0,1.93-.51,2.54-1.16l.49.44c-.75.81-1.64,1.39-3.06,1.39-1.94,0-3.63-1.55-3.63-3.86v-.03c0-2.15,1.51-3.86,3.51-3.86s3.4,1.68,3.4,3.87v.03c0,.1,0,.15-.01.26h-6.14c.13,1.84,1.45,2.92,2.9,2.92ZM113.84,107.81c-.1-1.49-.96-2.87-2.66-2.87-1.47,0-2.6,1.23-2.73,2.87h5.38Z"/>
      </g>
      <g>
        <path class="cls-5" d="M6.21,124.91l3.04-3.99.47.1,1.15,4.88-.57-.12-.23-.95-2.71-.58-.59.78-.56-.12ZM7.67,123.84l2.3.49-.42-1.72-.21-1.02c-.21.32-.41.61-.6.85l-1.08,1.39Z"/>
        <path class="cls-5" d="M12.27,126.17l.65-3.35.52.1-.1.54c.33-.35.75-.48,1.26-.38.41.08.69.26.85.54.16.28.2.64.11,1.07l-.4,2.04-.52-.1.38-1.96c.06-.31.04-.56-.06-.75-.1-.19-.3-.31-.6-.37-.27-.05-.53,0-.76.15-.23.16-.38.38-.44.68l-.36,1.88-.52-.1Z"/>
        <path class="cls-5" d="M16.93,127.06l.61-3.35.52.1-.61,3.35-.52-.09ZM17.63,122.79c.02-.1.07-.17.15-.23.08-.06.17-.08.26-.06.1.02.17.07.23.15.05.08.07.17.06.27-.02.09-.06.17-.14.22s-.17.08-.26.06c-.1-.02-.17-.07-.23-.15s-.07-.17-.06-.26Z"/>
        <path class="cls-5" d="M19.29,127.49l.56-3.36.52.09-.09.54c.14-.17.32-.3.52-.37.21-.08.42-.09.64-.06.54.09.87.37.97.85.15-.19.34-.33.58-.41s.47-.1.7-.07c.41.07.7.24.87.51s.22.63.14,1.07l-.34,2.06-.52-.09.33-1.97c.05-.3.03-.55-.07-.74-.09-.19-.29-.3-.6-.35-.27-.04-.5,0-.71.16-.2.15-.33.37-.38.65l-.32,1.96-.52-.09.33-1.97c.05-.3.03-.55-.07-.73-.09-.19-.29-.3-.6-.35-.26-.04-.5.02-.71.18-.21.16-.34.39-.38.67l-.32,1.91-.52-.09Z"/>
        <path class="cls-5" d="M26.17,126.88c.07-.49.29-.88.65-1.18s.77-.41,1.23-.34c.54.08.92.35,1.14.83l.08-.58.53.08-.49,3.37-.53-.08.08-.57c-.34.39-.78.54-1.33.47-.46-.07-.82-.29-1.09-.68s-.36-.82-.29-1.31ZM27.18,126.12c-.26.21-.41.49-.46.84-.05.35.02.66.21.93.19.27.45.43.78.48.32.05.61-.03.87-.24.26-.2.41-.48.46-.84.05-.35-.02-.66-.2-.93-.18-.27-.44-.43-.77-.48-.33-.05-.63.03-.89.24Z"/>
        <path class="cls-5" d="M31.41,128.3l.25-1.92-.51-.07.06-.45.51.07.1-.75h.54s-.11.82-.11.82l1.16.15-.06.45-1.16-.15-.24,1.82c-.06.47.07.73.39.77.09.01.19,0,.28-.01s.17-.04.22-.06l.08-.04.12.43c-.27.13-.54.18-.81.15-.3-.04-.52-.16-.67-.36-.15-.2-.2-.48-.15-.85Z"/>
        <path class="cls-5" d="M34.56,129.73l.41-3.38.53.06-.41,3.38-.53-.06ZM35,125.43c.01-.1.06-.18.13-.24s.16-.09.26-.07.18.06.23.13c.06.08.08.17.07.26-.01.09-.05.17-.13.23s-.16.09-.26.07-.18-.06-.23-.13c-.06-.08-.08-.16-.07-.25Z"/>
        <path class="cls-5" d="M36.93,130.01l.37-3.39.53.06-.06.54c.3-.38.71-.54,1.22-.49.41.04.71.2.89.47.18.27.25.62.2,1.06l-.22,2.07-.53-.06.21-1.98c.03-.32,0-.56-.12-.74s-.33-.28-.63-.31c-.28-.03-.53.04-.75.22-.22.18-.35.42-.38.72l-.21,1.9-.53-.06Z"/>
        <path class="cls-5" d="M41.6,128.66c.04-.47.23-.84.57-1.13.34-.28.74-.4,1.21-.36.54.05.93.31,1.16.77l.05-.58.53.05-.24,2.64c-.03.28-.09.53-.21.75-.11.21-.24.38-.38.49-.14.11-.3.2-.47.27-.17.07-.33.11-.46.12-.13.01-.25.02-.37,0-.54-.05-.97-.26-1.3-.65l.3-.32c.26.31.6.48,1.03.52.05,0,.11,0,.19,0,.08,0,.18-.03.31-.07.13-.04.25-.09.36-.17s.21-.19.3-.35.14-.34.16-.56v-.15c-.14.2-.32.34-.54.43-.22.09-.46.13-.72.1-.47-.04-.85-.24-1.13-.58s-.4-.75-.36-1.23ZM42.14,128.75c-.03.33.05.6.25.83.2.23.46.35.79.38.33.03.61-.05.84-.24.23-.19.36-.44.39-.77.03-.34-.05-.63-.24-.86s-.46-.37-.79-.4-.61.05-.85.25c-.24.2-.37.46-.4.8Z"/>
        <path class="cls-5" d="M49.37,131.16l.3-4.53.56.04-.26,4.03,2.86.19-.03.5-3.42-.22Z"/>
        <path class="cls-5" d="M54.42,131.47l.18-3.4.53.03-.18,3.4-.53-.03ZM54.58,127.14c0-.1.04-.18.11-.25s.16-.1.25-.09c.1,0,.18.04.24.12s.09.16.09.26c0,.09-.04.17-.11.24s-.16.1-.25.09c-.1,0-.18-.04-.24-.12-.06-.07-.09-.16-.09-.25Z"/>
        <path class="cls-5" d="M57.87,131.65l-1.36-3.49.55.02.86,2.21.22.69c.08-.25.18-.47.27-.66l1.04-2.14.55.02-1.65,3.37-.49-.02Z"/>
        <path class="cls-5" d="M61.04,130.05c.01-.49.19-.9.53-1.24s.75-.5,1.22-.49c.45.01.83.19,1.14.55.31.35.46.77.45,1.24l-.02.22-2.77-.07c.03.33.16.59.39.8s.5.31.82.32c.41.01.76-.11,1.06-.36l.24.39c-.4.32-.83.47-1.31.46-.5-.01-.92-.19-1.26-.53-.34-.34-.5-.77-.49-1.29ZM61.6,129.84l2.25.06c-.02-.31-.14-.57-.35-.78-.21-.21-.46-.32-.74-.32-.28,0-.54.09-.76.29-.22.2-.35.45-.4.76Z"/>
        <path class="cls-5" d="M65.83,131.4l.26-.42c.28.3.64.45,1.07.45.24,0,.45-.04.61-.14.16-.09.25-.22.25-.37,0-.08-.02-.15-.06-.21-.04-.06-.11-.11-.2-.16-.09-.04-.17-.08-.25-.1s-.18-.05-.31-.09c-.19-.05-.34-.09-.46-.13s-.24-.1-.37-.18-.22-.17-.28-.29c-.06-.11-.09-.25-.09-.41,0-.29.13-.52.39-.7.25-.18.54-.26.85-.26.42,0,.81.14,1.17.39l-.26.41c-.26-.19-.57-.28-.91-.28-.18,0-.34.04-.48.12s-.21.19-.21.32c0,.08.02.14.05.2.04.06.1.11.19.15.09.04.17.07.23.09.06.02.16.04.3.08.19.04.34.09.46.13.12.05.25.11.39.19.13.08.23.18.3.3s.1.26.1.43c0,.34-.15.6-.43.78-.28.18-.61.26-.98.26-.56,0-1-.19-1.33-.55Z"/>
        <path class="cls-5" d="M70.03,132.86l.34-1.6h.56l-.49,1.6h-.41Z"/>
        <path class="cls-5" d="M75.21,131.87l-.1-4.53h.55s2.23,2.75,2.23,2.75c.09.11.19.24.29.38s.18.25.23.34l.09.13-.08-3.67h.56s.1,4.52.1,4.52h-.56s-2.16-2.66-2.16-2.66c-.11-.13-.21-.27-.32-.42s-.19-.27-.25-.36l-.09-.13.08,3.65h-.56Z"/>
        <path class="cls-5" d="M80.86,130.42l-.08-2.1.53-.02.08,1.99c.03.64.33.95.91.93.28-.01.51-.12.68-.31.17-.2.25-.46.24-.79l-.08-1.9.53-.02.14,3.41-.53.02-.02-.52c-.23.41-.58.62-1.07.64-.42.02-.74-.1-.96-.34-.23-.25-.35-.57-.37-.98Z"/>
        <path class="cls-5" d="M85.67,131.51l-.18-3.4.53-.03.04.72c.09-.24.24-.44.46-.6.22-.16.49-.25.81-.26l.03.59c-.38.02-.69.15-.93.38-.23.23-.34.59-.31,1.07l.08,1.5-.53.03Z"/>
        <path class="cls-5" d="M89.39,130.27l-.13-1.93-.51.03-.03-.45.51-.03-.05-.75.53-.12.06.84,1.17-.08.03.45-1.17.08.12,1.83c.03.48.21.7.53.68.09,0,.19-.03.28-.07.09-.04.16-.07.2-.1l.07-.05.2.4c-.24.18-.49.29-.77.3-.3.02-.54-.05-.72-.22-.18-.17-.29-.44-.31-.8Z"/>
        <path class="cls-5" d="M92.57,129.77l-.17-2.1.53-.04.16,1.99c.05.64.37.94.95.89.28-.02.5-.14.67-.34.17-.21.24-.47.21-.8l-.15-1.89.53-.04.27,3.4-.53.04-.04-.52c-.21.42-.56.64-1.05.68-.41.03-.74-.07-.98-.3s-.37-.56-.4-.96Z"/>
        <path class="cls-5" d="M97.41,130.68l-.32-3.39.53-.05.07.72c.08-.24.23-.45.43-.61.21-.17.48-.27.8-.3l.05.59c-.38.04-.68.17-.91.42-.23.24-.32.6-.27,1.08l.14,1.5-.53.05Z"/>
        <path class="cls-5" d="M100.25,126.06c0-.1.02-.18.08-.26s.14-.12.24-.13c.1,0,.18.02.26.08.07.06.12.14.13.24,0,.09-.02.18-.08.25s-.14.12-.24.13-.18-.02-.26-.08c-.07-.06-.12-.14-.13-.23ZM100.77,130.35l-.35-3.39.53-.05.35,3.39-.53.05Z"/>
        <path class="cls-5" d="M103.15,130.1l-.39-3.39.53-.06.06.54c.21-.44.57-.69,1.08-.75.41-.05.74.04.97.26.24.22.38.55.43.99l.24,2.06-.53.06-.23-1.98c-.04-.31-.13-.55-.28-.69-.15-.15-.38-.2-.69-.17-.28.03-.51.16-.68.38s-.25.48-.21.78l.22,1.9-.53.06Z"/>
        <path class="cls-5" d="M107.42,127.75c-.06-.47.04-.88.31-1.23.27-.35.64-.56,1.1-.62.54-.07.97.09,1.3.49l-.08-.58.53-.07.35,2.62c.04.28.03.54-.04.77-.06.23-.15.42-.26.56-.11.14-.25.26-.4.36-.16.1-.3.18-.42.22-.13.04-.24.07-.36.08-.54.07-1.01-.04-1.41-.34l.22-.38c.32.25.69.34,1.12.28.05,0,.11-.02.19-.04.07-.02.17-.07.29-.13.12-.07.23-.15.31-.24.09-.09.16-.23.21-.4.05-.17.06-.37.04-.58l-.02-.15c-.1.23-.25.41-.45.55s-.42.23-.68.26c-.47.06-.88-.04-1.23-.32-.35-.27-.56-.65-.62-1.12ZM107.96,127.72c.04.32.19.58.43.75.24.18.53.25.86.2.33-.04.59-.18.77-.42.19-.23.26-.51.21-.84-.04-.34-.19-.6-.43-.79-.24-.19-.53-.26-.85-.22s-.59.19-.77.43c-.19.24-.26.53-.21.87Z"/>
        <path class="cls-5" d="M115.55,128.47l-.71-4.48,3.21-.51.08.49-2.66.42.21,1.36,2.23-.35.08.48-2.23.35.34,2.15-.55.09Z"/>
        <path class="cls-5" d="M119.75,126.48l-.36-2.08.52-.09.34,1.97c.11.63.45.9,1.03.8.28-.05.49-.18.63-.4.15-.22.19-.49.14-.81l-.32-1.87.52-.09.58,3.36-.52.09-.09-.52c-.17.43-.5.69-.98.77-.41.07-.74,0-1-.21-.26-.21-.42-.52-.49-.92Z"/>
        <path class="cls-5" d="M124.61,125.9l-.36-1.9-.5.09-.08-.45.5-.09-.14-.74.51-.18.15.83,1.15-.22.08.45-1.15.22.34,1.8c.09.47.29.67.61.61.09-.02.18-.05.27-.1.09-.05.15-.09.19-.13l.06-.06.25.37c-.21.21-.45.34-.72.39-.29.06-.54.01-.74-.13-.2-.14-.34-.4-.41-.76Z"/>
        <path class="cls-5" d="M127.69,125.03l-.42-2.07.52-.1.39,1.96c.13.63.48.89,1.05.77.27-.06.48-.2.62-.42.14-.22.18-.5.11-.82l-.38-1.86.52-.11.67,3.34-.52.11-.1-.51c-.16.44-.48.7-.96.8-.41.08-.74.02-1.01-.19-.26-.21-.43-.51-.51-.91Z"/>
        <path class="cls-5" d="M132.62,125.34l-.72-3.33.52-.11.15.7c.05-.25.17-.47.36-.66s.44-.32.76-.39l.12.58c-.37.08-.66.26-.85.52-.19.27-.24.64-.14,1.11l.32,1.47-.52.11Z"/>
        <path class="cls-5" d="M135.27,123.03c-.11-.48-.04-.92.2-1.34.24-.41.6-.67,1.06-.78.44-.1.85-.02,1.24.25.39.26.64.63.75,1.09l.04.22-2.7.62c.11.31.31.54.58.68.27.14.56.18.87.11.4-.09.71-.3.94-.62l.33.32c-.3.41-.69.66-1.16.77-.49.11-.94.05-1.35-.2-.42-.24-.68-.62-.8-1.12ZM135.76,122.69l2.2-.5c-.1-.3-.28-.52-.53-.67-.25-.15-.52-.19-.8-.13-.28.06-.5.22-.66.47s-.23.53-.2.84Z"/>
        <path class="cls-5" d="M140.25,123.14l.15-.48c.35.22.73.27,1.15.17.24-.06.42-.15.56-.28.14-.13.19-.27.15-.42-.02-.08-.06-.14-.11-.19-.06-.05-.14-.08-.23-.1-.1-.02-.19-.03-.27-.04-.08,0-.19,0-.32,0-.2,0-.36,0-.48-.02-.12-.01-.25-.04-.4-.08-.14-.04-.26-.11-.35-.21-.09-.1-.15-.22-.19-.38-.07-.28,0-.54.2-.77.2-.23.45-.39.76-.46.4-.1.81-.07,1.23.09l-.15.46c-.3-.11-.62-.13-.95-.05-.18.04-.32.12-.43.24-.11.12-.15.24-.12.36.02.07.05.13.1.18s.12.08.22.09c.1.02.18.03.24.03.07,0,.17,0,.31,0,.19,0,.35,0,.48.01.13.01.27.04.42.08s.27.11.37.22.16.23.2.39c.08.33,0,.62-.22.86s-.52.41-.88.49c-.54.13-1.01.07-1.43-.2Z"/>
      </g>
    </g>
  </g>
</svg>