<?xml version="1.0" encoding="UTF-8"?>
<svg id="Layer_2" data-name="Layer 2" xmlns="http://www.w3.org/2000/svg" viewBox="0 0 184.11 63.41">
  <defs>
    <style>
      .cls-1 {
        fill: #0083ca;
      }

      .cls-1, .cls-2, .cls-3, .cls-4, .cls-5, .cls-6 {
        stroke-width: 0px;
      }

      .cls-2 {
        fill: #ed1c24;
      }

      .cls-3 {
        fill: #e73b27;
      }

      .cls-4 {
        fill: #8a288e;
      }

      .cls-5 {
        fill: #4c494c;
      }

      .cls-6 {
        fill: #009444;
      }
    </style>
  </defs>
  <g id="Layer_1-2" data-name="Layer 1">
    <g>
      <g>
        <path class="cls-4" d="M44,21.89c-1.78-.66-2.98-1.99-2.94-3.29.03-1.14,1.02-2.09,1.16-2.22.96-.9,1.76-.68,2.22-1.51.4-.72-.02-1.17.27-2.05.2-.61.71-1.33,2.05-1.96.06.56.12,1.13.18,1.69.5.26,1.26.65,2.22,1.07,2.16.94,2.45.77,3.02,1.25,1.94,1.59,1.34,5.59,1.25,5.6,0,0-.02,0-.18-.62.22.76.54,1.27.8,1.6.49.63.85.72,1.51,1.51.53.64.83,1,.8,1.42-.08.98-1.87,1.49-1.96,1.51l-1.16,1.69c-.79-1.13-.78-1.76-.62-2.14.17-.41.49-.46.98-1.16.28-.4.73-1.06.53-1.42-.25-.46-1.41-.27-1.96-.18-1.63.27-1.72.83-2.94.98-1.53.19-2.42-.57-2.85-.09-.35.39-.04,1.2.09,1.51.61,1.54,1.69,1.84,4.18,3.74,2.83,2.16,2.95,2.94,4.54,3.29.43.1.91.15,1.16.53.65,1.02-.94,3.45-1.6,3.29-.42-.1-.15-1.14-.89-2.31-.57-.9-1.44-1.4-2.14-1.69-1.84.15-3.68.3-5.52.44.67,1.99,1.52,3.39,2.14,4.27,2.01,2.86,3.31,2.69,5.07,5.6.83,1.37,1.03,2.23,2.14,2.94,1.14.74,2.44.79,3.38.71-.71,1.54-1.91,3.44-4,4.54-2.07,1.08-4.03.87-4.27,1.87-.2.82.95,1.77,2.14,2.76.89.74,1.68,1.38,2.85,1.42.82.03,1.48-.24,1.87-.44-.56,1-1.42,2.27-2.67,3.56-1.14,1.17-2.28,2.01-3.2,2.58h-2.58c.38-.25.93-.67,1.42-1.33.62-.83.87-1.65.98-2.14.18-.47.36-.95.53-1.42-.48-2.7-2.3-4.22-3.65-4-.97.16-1.58,1.21-1.78,1.6-1.15.85-1.45,1.61-1.51,2.14-.07.55.14.61.36,2.22.15,1.16.11,1.63,0,2.05-.14.52,1.19,1.34.89,1.33-5.69-.09-7.74.4-8.45-.18-.22-.18,3.21-1.58,3.91-2.09.75-.54,1.33-.91,1.6-1.16.52-.48.42-2.49-.36-5.12-1.08-.21-2.76-.66-4.54-1.78-2.11-1.32-3.36-2.94-4-3.91.87-.5,2.17-1.39,3.38-2.85.76-.91,3.02-3.63,2.85-7.03-.16-3.04-.15-3.15.25-5.66.26-1.66-.72-2.42.01-5.29.27-1.04.39-1.92.44-2.49-.29-.29-.71-.74-1.16-1.33-.56-.74-1.56-2.24-2.67-5.96-1.02-3.43-.8-4.3-1.78-5.16-1.87-1.64-2.31-1.87-2.31-1.87-.35-.18-.82-.38-.8-.62.02-.33.88-.32,1.42-.89.49-.52.52-1.32.44-1.96.67,1,1.62,2.03,2.85,2.14,1.03.09,1.89-.5,2.05-.27.1.15-.13.59-1.51,1.87-.09.39-1.18,5.51,2.22,8.81,1.34,1.3,2.88,1.82,3.83,2.05Z"/>
        <polygon class="cls-2" points="25.32 8.4 26.21 10.2 28.2 10.49 26.76 11.89 27.1 13.86 25.32 12.93 23.54 13.86 23.88 11.89 22.45 10.49 24.43 10.2 25.32 8.4"/>
        <polygon class="cls-1" points="28.2 0 29.38 2.4 32.03 2.79 30.11 4.66 30.57 7.3 28.2 6.06 25.82 7.3 26.28 4.66 24.36 2.79 27.01 2.4 28.2 0"/>
        <polygon class="cls-6" points="28.2 15.26 29.05 16.99 30.97 17.27 29.58 18.62 29.91 20.53 28.2 19.63 26.48 20.53 26.81 18.62 25.43 17.27 27.34 16.99 28.2 15.26"/>
        <path class="cls-4" d="M19.64,11.43c.09-.04.2-.08.32-.15.34-.17.57-.08.81-.09.37-.03-.28.61-.06.93.38.57,1.01.75.68,1.18-.26.34-.41.26-.55.55-.28.59.26,1.11-.04,1.55-.18.26-.42.14-.63.46-.18.28-.2.66-.08.97.1.27-.56.4-.47.47-.96,1.86-1.55,3.07-2.01,3.66-1.92,2.48-1.73,2.51-2.39,4.32-.17.48-.13,1.24-.7,1.31.33.39.13,1.19-.03,2.05-.14.78-.61,1.37-.48,2.13.1.57.43,5.97.36,6.53-.11,1,.07.71-.24,1.11-.4.52.1,1.28-.14,1.77-.25.51-.03,1.07.08,1.43.36,1.17-.03,1.69-.34,4.33-.11.94-.22,1.65-.21,3.34-.43-.06-.87.53-1.3.48-.04,1.05-.2,1.84-.34,2.35-.09.36-.6.59-.71.83-.29.61-.61.87-.77,1.05-.27.31-1.01,1.7-1.71,3.07-.37.74-.61,1.2-.63,1.89-.03,1.31.77,2.28.97,2.52.95,1.12,2.09,1.26,2.02,1.6-.08.37-1.56.38-2.27.34-.81-.05-1.46-.21-1.89-.34-1.61-.95-2.38-2.67-3.99-3.63q.84-.77,1.68-1.54c.06-.35,1.03-.39,1.27-.96.94-2.2.31-2.59,1.12-4.03.99-1.76,1.64-1.82,1.73-3.06.09-1.19-1.8-3.02-2.01-3.72-.35-1.16-2.75-7.81-1.74-10.19.2-.47.62-1.14,1.26-1.89-.24-.45-.61-1.04-1.18-1.64-.54-.57-.28-1.13-.7-1.39.11-.58-.59-1.28-.72-2.31-.15-1.13,2.46-2.84,1.13-2.39-.38-.12-3.51-.72-4.24-1.93-1.14-1.91-.05-4,.08-4.24,1.22-2.24,3.39-2.78,3.65-2.81,2.72-.39,5.48,3.06,5.43,4.38-.03.89-.01,1.29-.01,1.29-.29.31-1.29.82-1.27.98.02.18,1.74-.27,2.02-.23.35.05.37-.29,1.04-.39.17-.22,1.66.12,1.99-.31,1.59-2.1,2.09-2.99,3.06-4.28,1.01-1.35.92-1.94,1.3-2.96.21-.56.65-.63.69-.84.37-1.77-.3-2.87.27-3.27.24-.17.4-.1.85-.27"/>
      </g>
      <g>
        <g>
          <path class="cls-3" d="M73.71,5.12c.17.14.35.36.55.65l.1.11,1.72,2.55.31.46.3.37.32.52c.09.2.25.42.47.66l.35.58.27.34,1.14,1.76.19.22c.2.26.34.47.42.63l1.21,1.79c.12.11.22.26.31.46l.4.63.3.39,3.77,5.51.28.4,1.94,2.87c.08.11.2.26.37.45l.33.58.18.2.12.23s.11.11.19.22l1.83,2.72.18.2.12.23,1,1.4.12.23.28.4c.2.26.34.49.43.69l.18.16.2.33c.08.11.14.28.19.5l-.88.46c-.28.1-.61.27-1,.51l-.17.09-.65.3s-.11.09-.23.12l-1.22.67-.29.16-.3.13-1.17.6-.56.33-.45.12-.77-1.06c-.17-.18-.27-.31-.3-.39l-.15-.17-.41-.55-.18-.16-.21-.35-.75-.93-5.76,1.39c-.1.51-.11,1.11-.04,1.79v.19s.02.91.02.91c.02.31.02.68,0,1.12v.25l-1.18.28-.13-.02-.57.14-.95.16c-.37.05-.69.08-.96.1l-2.2.39c-.09-.37-.11-.79-.05-1.29l.1-2.33.03-.47v-.25s.06-1.66.06-1.66v-.25s.06-1.66.06-1.66c.06-.32.07-.72.03-1.19l.03-.47.06-.26-.03-.21.02-.38.07-.61v-.34s.19-5.35.19-5.35l.02-.75.2-4.38v-.25l.04-.41v-.25c-.02-.26,0-.58.05-.94l.07-2.11v-.27s.09-2.11.09-2.11l.03-.72.21-4.53-.03-.19.06-.26.07-2.13ZM77.91,20.67l.07.56-.03.72.05.18-.04.41.09,1.43c0,.21,0,.37-.03.47l.06.24.04,1.77v.32c0,.48,0,.9.03,1.25v.72s.02.38.02.38l.02.4.97-.04.95-.16c.14,0,.31-.02.52-.07l.65-.02c.2-.05.35-.06.44-.03l.17-.11c-.1-.28-.26-.59-.48-.94l-.17-.35-.29-.71c-.16-.27-.3-.58-.43-.94l-.13-.29-.51-1-.12-.23-.33-.85-.09-.15-1.22-2.61-.05-.18-.17-.14Z"/>
          <path class="cls-3" d="M103.5,13.9l.38-.02c.04.26.03.54-.03.82l-.07.76-.05.38-.07.62v.21s-.05.12-.04.21l-.07.78-.04.26-.06.28-.03.55c-.06.23-.09.48-.07.76-.06.26-.1.59-.11,1l-.05.17c0,.21-.02.46-.07.76v.17s-.08.53-.08.53c-.02.18-.03.37-.03.55l-.09.39-.05.38-.02.44c-.04.21-.05.4-.03.55-.04.03-.06.16-.05.38l-.03.32c-.04.19-.07.34-.1.45,0,.22-.02.48-.07.76l-.03.38-.05.38-.12,1.1-.03.32-.04.23c0,.21-.02.46-.07.76l-.11,1.21-.04.28-.05.32.02.21-.1.45-.02.44-.04.49-.05.34-.12.92.02.23c-.07.19-.09.42-.08.7l-.04.28c-.03.12-.04.26-.04.45l-.09.39-.04.44-.63-.86-.11-.09c-.44-.63-.85-1.18-1.23-1.64l-.1-.2c-.35-.39-.64-.78-.89-1.17l-.09-.1-.13-.22-.46-.59-.19-.19-1.33-1.87-.11-.09-.59-.85-.17-.21.07.33.07.48c.09.21.14.4.14.55l.06.2.06.22c.06.29.1.5.15.64l.06.22.26,1.19c.04.18.09.3.14.36v.23c.08.13.13.31.14.53.08.24.14.53.19.86l.14.32v.21s.27,1.09.27,1.09c.08.22.15.5.21.86l.13.49.06.37-.64.15h-.17s-.92.21-.92.21l-.31.05-.23.02-.27.07c-.62.13-1.14.22-1.57.28l-.27.07-.33.07-.08-.6-.08-.37-.06-.39-.08-.37c-.04-.32-.08-.59-.1-.81l-.05-.1c-.05-.37-.08-.66-.08-.87-.09-.26-.15-.58-.16-.97l-.08-.39-.06-.2-.25-1.95-.05-.12-.02-.38s-.08-.15-.11-.35c-.03-.19-.04-.4-.05-.62l-.05-.1v-.33s-.09-.16-.09-.16l-.02-.38c-.04-.11-.06-.25-.06-.43l-.08-.39-.21-1.34-.02-.21-.06-.22-.02-.38c-.08-.26-.13-.58-.14-.97l-.08-.39-.06-.2v-.33s-.09-.16-.09-.16l-.07-.75-.08-.6-.08-.39-.07-.27c-.01-.28-.06-.64-.15-1.08l-.02-.17-.08-.6-.08-.37-.06-.37-.02-.23c-.04-.29-.09-.54-.13-.74l-.02-.23-.14-.76v-.27s-.07-.27-.07-.27l-.08-.58c.23.16.45.4.68.73l.63.67.12.16c.15.14.33.33.52.58l.45.52c.08.1.21.25.4.42l.29.37.19.21.61.68.64.74.23.21.57.68.4.42c.16.21.29.36.4.46l.81.95c.16.17.3.31.42.42l.85.99.24.27c.19.21.34.36.44.46l.64.74.28.33-.15-3.55c.03-.28.03-.65,0-1.09l-.13-3.3.03-.34-.17-3.97c.25-.12.53-.21.82-.25.21-.09.52-.18.92-.26.21-.05.47-.14.79-.27h.23s.53-.2.53-.2l.27-.07c.47-.09.85-.19,1.15-.32Z"/>
          <path class="cls-3" d="M105.09,10.89c-.81-1.56-.42-2.98,1.2-4.24,2.36-1.06,4-.63,4.92,1.29.56,1.98-.35,3.35-2.71,4.11-1.29.2-2.42-.18-3.4-1.15ZM105.74,13.87c.53.03,1.17.19,1.91.47l.85.17c.38.09.71.2,1,.33l2.27.56.12,1.65-.03.29.15.96-.07.28c.12.38.16.85.13,1.4l.22,2.29-.03.23.11,1.06-.03.17.13.93-.04.44.15.93-.02.5.22,2.29-.03.32.21,2.1-.05.36.26,2.43-.14.17c-.47.06-1.01.04-1.61-.07-.83-.13-1.54-.2-2.14-.21l-.48-.08-.34-.03-2.7-19.95Z"/>
          <path class="cls-3" d="M130.11,10.71l.1-.02,4.47,19.77-5.69,1.1-.75-6.97-2.41,7.9-5.36-5.9-1.14,5.71-4.39-.04,2.73-18.68,6.35,11.28,6-14.03.08-.12Z"/>
          <path class="cls-3" d="M139.06,12.79c.24.02.55,0,.93-.07,10.49.13,13.69,5.19,9.6,15.17-.1.23-.2.5-.28.82.94,2.68,2.75,3.95,5.45,3.81-.07.32-.19.69-.37,1.12l-.67,1.5-.19.47-.24.59c-2.67.13-4.87-.98-6.62-3.32-1.55,1.27-3.4,1.72-5.56,1.34-2.33-.52-4.14-1.97-5.42-4.35-1.32-3.13-.77-5.99,1.64-8.57,2.56-1.87,5.33-1.92,8.3-.15l.18-.4c.53-2.98-1.24-4.44-5.29-4.4h-.75l-.13.07-.44-.04-.42.03-.49.11-.48.02-.28.04.69-1.68.08-.27.26-.61.11-.26.42-.95ZM145.4,25.63c-.16-1.5-1.01-2.45-2.55-2.86-1.98.39-2.87,1.66-2.69,3.8.5,2.04,1.75,2.73,3.75,2.05.94-.7,1.44-1.7,1.49-3Z"/>
          <path class="cls-3" d="M164.13,6.6c.11.03.18.08.23.16l-.04.65-.03.33.02.17-.06.92c-.03.14-.04.32-.02.55-.01.18-.03.31-.04.38l-.05.58v.23s-.09,1.06-.09,1.06l.02.17-.05.88c-.07.24-.08.52-.04.82,0,.21-.02.44-.04.69l-.05.16c0,.25-.01.55-.05.88v.48s-.05.38-.05.38c-.02.25-.03.43-.02.55s0,.24-.04.38v.62s1.73-.46,1.73-.46l.35-.09.17-.02.47-.16.28-.04s.13-.04.24-.05l.95-.26c.19-.07.44-.12.74-.16l.17-.02-.09.6-.04.38-.04.38-.04.38v.34s-.05.54-.05.54c-.04.16-.05.29-.04.38l-.03.21-.14,1.18c0,.18-.03.41-.1.68l-.06.26-.42.11-.14.08-1,.31-.14.08-.29.08-.49.16-.43.17c-.19.07-.35.12-.47.16l-.96.32c-.23.05-.52.15-.85.29l-.08,1.19-.04.38c0,.18,0,.31.03.38l-.06.22s.03.1.01.21l-.08,1.19-.02.27c0,.48-.03.9-.09,1.25l-.11,2.29-.04.38c.02.23.03.4.02.5,0,.1-.03.28-.05.53v.34s-.08,1.19-.08,1.19l-.04.38-.03.31.02.17-.02.55c-.01.18-.03.31-.05.38-.02.07-.02.15,0,.22l-.03.86-.03.33-.03.31-.02.27v.34s-.06.65-.06.65v.72c-.02.21-.04.37-.08.48l-2.71.33-.24.07-.27-.02-.8.13h-.72c.06-.25.08-.52.04-.82.02-.22.05-.4.08-.54l-.03-.38.03-.33.05-.2v-.28s.01-.21.01-.21l.04-.44.08-1.19v-.32s.03-.27.03-.27c0-.48.03-.9.09-1.25l.03-.33.04-1.09v-.27c.08-.45.1-.83.07-1.13l.03-.33.07-.75.04-.38.04-1.09.02-.27c.01-.55.05-1,.1-1.36-.02-.26,0-.58.06-.96.01-.18.02-.34,0-.46,0-.13,0-.28.05-.46,0-.23,0-.41.04-.54l-.03-.38.03-.33c.02-.11,0-.24-.03-.38l-2.57.37-.18.06-.91.12c-.16.06-.35.09-.56.08l-.41.06-.8.13c-.26.02-.56.07-.91.16-.18,0-.39.03-.62.07l1.25-5.16.69-.11c.1-.01.25-.05.46-.1l2.02-.35s.11-.05.22-.07c.12-.02.25-.04.41-.04l1.96-.4.12-2.07v-.21s0-.27,0-.27l.07-1.7.02-.27v-.27s.07-.75.07-.75l.03-.31c0-.48.03-.88.08-1.19v-.5s.05-.38.05-.38c-.02-.52.02-1.22.1-2.08,0-.21,0-.46.03-.76l.81-.19c.15,0,.35-.02.58-.08l2.87-.52.35-.07.52-.09Z"/>
          <path class="cls-3" d="M168.68,30.6c-.15-6.28,2.38-9.78,7.59-10.5,4.46.1,7.04,2.46,7.76,7.07.06.38.08,1.47.07,3.27l-.98.06-.46.03-.46.03-.46.03-.39.04-.58.02-.25.05h-.52s-1.43.1-1.43.1c-.34.05-.77.08-1.3.08l-.65.03-.46.03-.37.02-.39.04-1.3.16c-.79,2.25-.29,3.81,1.49,4.68,2.21.35,4.51-.05,6.92-1.18l-.16,1.4-.1.45-.05.63-.08.26-.21,1.6c-.18.1-.42.21-.73.31l-.96.19-.39.04-1.11.1c-.17,0-.38,0-.64,0h-.19l-.72.05-2.61-.19-.77-.19c-3.22-1.63-4.92-4.53-5.11-8.71ZM179.3,26.73c-.21-1.77-1.29-2.58-3.25-2.41-1.25.82-1.78,2.14-1.59,3.97l5.06-.44-.22-1.12Z"/>
        </g>
        <path class="cls-3" d="M86.79,52.14c5.69,1.52,16.9,4.03,32.05,4.42,22.07.56,38.13-3.75,43.5-5.35-6.96,1.64-21.74,4.57-41.39,4.42-15.43-.12-27.38-2.09-34.17-3.49Z"/>
        <g>
          <path class="cls-3" d="M96.43,48.05c-1.18,0-2.09-.39-2.98-1.18l.36-.41c.81.75,1.56,1.1,2.65,1.1s1.87-.62,1.87-1.47v-.02c0-.78-.41-1.24-2.09-1.58-1.78-.36-2.5-.96-2.5-2.08v-.02c0-1.1,1-1.95,2.38-1.95,1.08,0,1.79.3,2.54.9l-.35.43c-.7-.6-1.4-.83-2.21-.83-1.09,0-1.81.62-1.81,1.4v.02c0,.78.4,1.26,2.16,1.62,1.71.35,2.43.96,2.43,2.04v.02c0,1.2-1.03,2.02-2.45,2.02Z"/>
          <path class="cls-3" d="M103.51,48.07c-1.6,0-2.76-1.29-2.76-2.8v-.02c0-1.51,1.17-2.82,2.78-2.82s2.76,1.29,2.76,2.8v.02c0,1.51-1.17,2.82-2.78,2.82ZM105.73,45.25c0-1.3-.97-2.34-2.22-2.34s-2.2,1.05-2.2,2.32v.02c0,1.3.97,2.34,2.22,2.34s2.2-1.05,2.2-2.32v-.02Z"/>
          <path class="cls-3" d="M110.8,48.07c-1.55,0-2.75-1.29-2.75-2.8v-.02c0-1.51,1.21-2.82,2.75-2.82,1.02,0,1.65.46,2.16.99l-.37.38c-.47-.48-.99-.89-1.8-.89-1.23,0-2.18,1.03-2.18,2.32v.02c0,1.3.98,2.34,2.22,2.34.76,0,1.35-.39,1.81-.9l.36.32c-.55.62-1.21,1.07-2.2,1.07Z"/>
          <path class="cls-3" d="M115.01,41.15v-.71h.65v.71h-.65ZM115.07,47.94v-5.39h.52v5.39h-.52Z"/>
          <path class="cls-3" d="M121.87,47.94v-.9c-.37.52-1.04,1.03-2.06,1.03s-2.08-.57-2.08-1.69v-.02c0-1.12.96-1.76,2.36-1.76.75,0,1.27.1,1.79.23v-.23c0-1.09-.67-1.65-1.78-1.65-.66,0-1.19.18-1.69.43l-.19-.46c.59-.27,1.17-.46,1.91-.46,1.39,0,2.25.72,2.25,2.12v3.36h-.51ZM121.88,45.31c-.45-.12-1.06-.24-1.83-.24-1.14,0-1.78.51-1.78,1.26v.02c0,.78.74,1.24,1.56,1.24,1.1,0,2.04-.68,2.04-1.66v-.61Z"/>
          <path class="cls-3" d="M124.85,47.94v-7.72h.52v7.72h-.52Z"/>
          <path class="cls-3" d="M135.13,48.07c-2.11,0-3.68-1.68-3.68-3.81v-.02c0-2.09,1.56-3.83,3.7-3.83,1.32,0,2.11.49,2.88,1.18l-.39.4c-.65-.62-1.39-1.09-2.5-1.09-1.78,0-3.12,1.45-3.12,3.31v.02c0,1.87,1.36,3.33,3.13,3.33,1.07,0,1.8-.41,2.55-1.15l.37.36c-.78.77-1.63,1.29-2.94,1.29Z"/>
          <path class="cls-3" d="M143.7,47.94v-.9c-.37.52-1.04,1.03-2.06,1.03s-2.08-.57-2.08-1.69v-.02c0-1.12.96-1.76,2.36-1.76.75,0,1.27.1,1.79.23v-.23c0-1.09-.67-1.65-1.78-1.65-.66,0-1.19.18-1.69.43l-.19-.46c.59-.27,1.17-.46,1.91-.46,1.39,0,2.25.72,2.25,2.12v3.36h-.51ZM143.71,45.31c-.45-.12-1.06-.24-1.83-.24-1.14,0-1.78.51-1.78,1.26v.02c0,.78.74,1.24,1.56,1.24,1.1,0,2.04-.68,2.04-1.66v-.61Z"/>
          <path class="cls-3" d="M149.46,43.04c-1.25,0-2.34.94-2.34,2.7v2.21h-.52v-5.39h.52v1.53c.42-.96,1.32-1.66,2.39-1.62v.57h-.05Z"/>
          <path class="cls-3" d="M153.41,47.58c.84,0,1.41-.37,1.85-.85l.36.32c-.55.59-1.2,1.02-2.23,1.02-1.42,0-2.64-1.13-2.64-2.81v-.02c0-1.57,1.1-2.81,2.56-2.81s2.47,1.23,2.47,2.82v.02c0,.07,0,.11-.01.19h-4.47c.1,1.34,1.06,2.13,2.11,2.13ZM155.22,44.99c-.07-1.09-.7-2.09-1.94-2.09-1.07,0-1.89.9-1.99,2.09h3.92Z"/>
        </g>
        <g>
          <path class="cls-5" d="M76.78,57.45l2.21-2.91.34.07.84,3.56-.41-.09-.17-.69-1.98-.42-.43.57-.41-.09ZM77.84,56.68l1.68.36-.3-1.25-.15-.74c-.15.24-.3.44-.43.62l-.79,1.02Z"/>
          <path class="cls-5" d="M81.22,58.38l.47-2.44.38.07-.08.39c.24-.26.55-.35.92-.28.3.06.5.19.62.39.12.21.14.47.08.78l-.29,1.49-.38-.07.28-1.43c.04-.23.03-.41-.04-.54-.07-.13-.22-.22-.44-.27-.2-.04-.39,0-.56.11-.17.11-.28.28-.32.5l-.27,1.37-.38-.07Z"/>
          <path class="cls-5" d="M84.6,59.02l.44-2.45.38.07-.44,2.44-.38-.07ZM85.1,55.91c.01-.07.05-.13.11-.17.06-.04.12-.06.19-.04s.12.05.16.11c.04.06.05.12.04.19-.01.07-.05.12-.1.16-.06.04-.12.06-.19.04-.07-.01-.12-.05-.16-.11-.04-.06-.05-.12-.04-.19Z"/>
          <path class="cls-5" d="M86.31,59.33l.41-2.45.38.06-.06.39c.1-.13.23-.22.38-.27.15-.05.31-.07.47-.04.4.07.63.27.71.62.11-.14.25-.24.42-.3.17-.06.34-.08.51-.05.3.05.51.17.63.37.12.2.16.46.1.78l-.25,1.5-.38-.06.24-1.43c.04-.22.02-.4-.05-.54s-.21-.22-.44-.26c-.19-.03-.37,0-.52.11-.15.11-.24.27-.27.47l-.24,1.43-.38-.06.24-1.43c.04-.22.02-.4-.05-.54-.07-.14-.21-.22-.44-.26-.19-.03-.36.01-.52.13-.15.12-.25.28-.28.49l-.23,1.39-.38-.06Z"/>
          <path class="cls-5" d="M91.33,58.89c.05-.36.21-.64.47-.86.26-.22.56-.3.9-.25.39.06.67.26.83.6l.06-.42.38.06-.36,2.46-.38-.06.06-.42c-.25.28-.57.4-.97.34-.34-.05-.6-.21-.79-.5-.19-.28-.26-.6-.21-.95ZM92.06,58.33c-.19.15-.3.36-.34.61s.01.48.15.68c.14.2.33.31.57.35.24.03.45-.02.63-.17s.3-.35.34-.61c.04-.25-.01-.48-.15-.68-.13-.2-.32-.31-.56-.35-.24-.04-.46.02-.65.17Z"/>
          <path class="cls-5" d="M95.14,59.93l.18-1.4-.37-.05.04-.33.37.05.07-.55h.39s-.08.6-.08.6l.84.11-.04.33-.84-.11-.17,1.33c-.04.34.05.53.28.56.07,0,.14,0,.21,0,.07-.01.12-.03.16-.05l.06-.03.09.31c-.19.1-.39.13-.59.11-.22-.03-.38-.12-.49-.26-.11-.15-.14-.35-.11-.62Z"/>
          <path class="cls-5" d="M97.44,60.97l.3-2.47.38.05-.3,2.47-.38-.05ZM97.76,57.83c0-.07.04-.13.1-.17.05-.04.12-.06.19-.05.07,0,.13.04.17.1s.06.12.05.19c0,.07-.04.12-.09.17-.06.04-.12.06-.19.05-.07,0-.13-.04-.17-.1s-.06-.12-.05-.19Z"/>
          <path class="cls-5" d="M99.17,61.17l.27-2.47.39.04-.04.4c.22-.28.51-.4.89-.36.3.03.52.15.65.34.13.19.18.45.15.77l-.16,1.51-.39-.04.16-1.45c.02-.23,0-.41-.09-.54s-.24-.21-.46-.23c-.2-.02-.38.03-.55.16-.16.13-.25.3-.28.52l-.15,1.38-.39-.04Z"/>
          <path class="cls-5" d="M102.57,60.19c.03-.34.17-.62.42-.82s.54-.29.88-.26c.4.04.68.22.85.56l.04-.43.39.04-.18,1.92c-.02.21-.07.39-.15.54-.08.16-.17.28-.28.36-.1.08-.22.15-.35.19-.13.05-.24.08-.34.09-.1,0-.19.01-.27,0-.39-.04-.71-.19-.95-.47l.22-.24c.19.23.44.35.75.38.04,0,.08,0,.14,0,.06,0,.13-.02.23-.05.1-.03.18-.07.26-.12.08-.05.15-.14.21-.25.07-.12.1-.25.12-.41v-.11c-.1.14-.23.25-.4.32-.16.07-.34.09-.53.07-.34-.03-.62-.17-.82-.42-.21-.25-.29-.55-.26-.89ZM102.96,60.25c-.02.24.04.44.18.6s.34.26.58.28c.24.02.45-.04.61-.17.17-.14.27-.32.29-.56.02-.25-.04-.46-.18-.63-.14-.17-.33-.27-.57-.29-.24-.02-.45.04-.62.18-.17.14-.27.34-.29.58Z"/>
          <path class="cls-5" d="M108.26,62.01l.22-3.3.41.03-.19,2.94,2.08.14-.02.36-2.49-.16Z"/>
          <path class="cls-5" d="M111.92,62.23l.13-2.48.39.02-.13,2.48-.39-.02ZM112.03,59.08c0-.07.03-.13.08-.18.05-.05.11-.07.19-.07s.13.03.18.09c.05.05.07.12.06.19,0,.07-.03.13-.08.17-.05.05-.11.07-.19.07s-.13-.03-.18-.09c-.05-.05-.07-.11-.06-.18Z"/>
          <path class="cls-5" d="M114.45,62.37l-.99-2.54.4.02.63,1.61.16.5c.06-.18.13-.34.2-.48l.76-1.56.4.02-1.2,2.45h-.36Z"/>
          <path class="cls-5" d="M116.77,61.2c0-.36.14-.66.39-.91s.55-.37.89-.36c.33,0,.6.14.83.4s.34.56.33.91v.16s-2.03-.05-2.03-.05c.02.24.12.43.29.58.17.15.36.23.6.23.3,0,.56-.08.77-.27l.18.29c-.29.23-.61.34-.96.33-.36,0-.67-.14-.92-.39s-.37-.56-.36-.94ZM117.17,61.05l1.64.04c-.02-.23-.1-.42-.25-.57-.15-.15-.33-.23-.54-.24-.21,0-.39.06-.55.21s-.26.33-.29.55Z"/>
          <path class="cls-5" d="M120.26,62.19l.19-.31c.21.22.46.33.78.33.18,0,.33-.03.45-.1.12-.07.18-.16.18-.27,0-.06-.02-.11-.05-.15-.03-.04-.08-.08-.15-.11s-.13-.06-.18-.07c-.06-.02-.13-.04-.23-.06-.14-.04-.25-.07-.33-.1-.08-.03-.17-.07-.27-.13-.09-.06-.16-.12-.21-.21s-.06-.18-.06-.3c0-.21.1-.38.28-.51s.39-.19.62-.19c.3,0,.59.1.85.29l-.19.3c-.19-.13-.41-.2-.66-.21-.13,0-.25.03-.35.09-.1.06-.15.14-.15.23,0,.05.01.1.04.14s.07.08.14.11.12.05.17.06c.05.01.12.03.22.06.14.03.25.06.34.1s.18.08.28.14c.1.06.17.13.22.22.05.09.07.19.07.31,0,.25-.11.44-.31.57s-.44.19-.71.19c-.4,0-.73-.14-.97-.4Z"/>
          <path class="cls-5" d="M123.31,63.25l.25-1.17h.41l-.36,1.17h-.3Z"/>
          <path class="cls-5" d="M127.09,62.52l-.07-3.3h.4s1.63,2,1.63,2c.07.08.14.17.21.28s.13.19.17.25l.06.1-.06-2.68h.41s.07,3.3.07,3.3h-.41s-1.58-1.94-1.58-1.94c-.08-.09-.16-.2-.24-.31-.08-.11-.14-.2-.18-.26l-.06-.1.06,2.66h-.41Z"/>
          <path class="cls-5" d="M131.21,61.47l-.06-1.53.39-.02.06,1.45c.02.47.24.69.67.68.2,0,.37-.08.5-.23s.19-.34.18-.57l-.06-1.38.39-.02.1,2.48-.39.02-.02-.38c-.17.3-.43.45-.78.47-.3.01-.54-.07-.7-.25s-.25-.42-.27-.71Z"/>
          <path class="cls-5" d="M134.72,62.26l-.13-2.48.39-.02.03.52c.07-.17.18-.32.33-.43.16-.12.35-.18.59-.19l.02.43c-.28.01-.5.11-.67.28-.17.17-.25.43-.23.78l.06,1.09-.39.02Z"/>
          <path class="cls-5" d="M137.43,61.36l-.09-1.4-.37.02-.02-.33.37-.02-.04-.55.38-.09.04.61.85-.06.02.33-.85.06.09,1.33c.02.35.15.51.39.5.07,0,.13-.02.2-.05s.12-.05.15-.08l.05-.04.15.29c-.17.13-.36.21-.56.22-.22.01-.39-.04-.53-.16-.13-.12-.21-.32-.23-.59Z"/>
          <path class="cls-5" d="M139.76,60.99l-.12-1.53.39-.03.12,1.45c.04.47.27.68.69.65.2-.02.37-.1.49-.25s.17-.34.15-.58l-.11-1.38.39-.03.2,2.48-.39.03-.03-.38c-.15.3-.41.47-.76.5-.3.02-.54-.05-.71-.22-.17-.17-.27-.41-.29-.7Z"/>
          <path class="cls-5" d="M143.27,61.65l-.23-2.47.39-.04.05.52c.06-.18.16-.33.32-.45.15-.12.35-.19.58-.22l.04.43c-.28.03-.5.13-.66.3s-.23.44-.2.79l.1,1.09-.39.04Z"/>
          <path class="cls-5" d="M145.34,58.29c0-.07.01-.13.05-.19.04-.06.1-.09.17-.09.07,0,.13.01.19.06.05.05.09.1.09.18,0,.07-.01.13-.06.18-.04.06-.1.09-.17.09-.07,0-.13-.01-.19-.06-.05-.04-.08-.1-.09-.17ZM145.72,61.42l-.26-2.47.39-.04.26,2.47-.39.04Z"/>
          <path class="cls-5" d="M147.45,61.23l-.28-2.47.39-.04.05.4c.15-.32.42-.5.79-.54.3-.04.54.03.71.19.17.16.28.4.31.72l.17,1.5-.38.04-.17-1.44c-.03-.23-.09-.4-.2-.5-.11-.11-.28-.15-.5-.12-.2.02-.37.12-.5.28-.13.16-.18.35-.15.57l.16,1.38-.39.04Z"/>
          <path class="cls-5" d="M150.58,59.52c-.04-.34.03-.64.23-.89.2-.25.46-.41.81-.45.39-.05.71.07.95.36l-.06-.42.38-.05.25,1.91c.03.21.02.39-.03.56s-.11.31-.19.41-.18.19-.29.27c-.11.08-.22.13-.31.16-.09.03-.18.05-.26.06-.39.05-.73-.03-1.03-.25l.16-.28c.23.18.5.25.81.21.04,0,.08-.02.13-.03s.12-.05.21-.1c.09-.05.16-.11.23-.18.06-.07.12-.17.15-.29.04-.13.05-.27.03-.42v-.11c-.09.16-.2.3-.34.4-.14.1-.31.16-.5.19-.34.04-.64-.03-.9-.23-.26-.2-.41-.47-.45-.82ZM150.97,59.49c.03.24.14.42.31.55.18.13.38.18.62.15s.43-.13.56-.3c.14-.17.19-.37.16-.61-.03-.25-.14-.44-.31-.57-.18-.14-.38-.19-.62-.16-.24.03-.43.14-.56.31-.14.18-.19.39-.16.64Z"/>
          <path class="cls-5" d="M156.49,60.04l-.52-3.26,2.34-.37.06.36-1.94.31.16.99,1.62-.26.06.35-1.62.26.25,1.57-.4.06Z"/>
          <path class="cls-5" d="M159.57,58.59l-.26-1.51.38-.07.25,1.43c.08.46.33.66.75.58.2-.04.35-.13.46-.29.11-.16.14-.36.1-.59l-.24-1.36.38-.07.43,2.45-.38.07-.07-.38c-.12.32-.36.5-.71.56-.3.05-.54,0-.73-.16-.19-.16-.31-.38-.36-.67Z"/>
          <path class="cls-5" d="M163.09,58.17l-.26-1.38-.37.07-.06-.33.37-.07-.1-.54.37-.13.11.6.84-.16.06.33-.84.16.25,1.31c.06.34.21.49.44.45.07-.01.13-.04.19-.07s.11-.07.14-.09l.04-.04.18.27c-.15.15-.33.25-.53.29-.21.04-.39,0-.54-.1s-.25-.29-.3-.55Z"/>
          <path class="cls-5" d="M165.36,57.53l-.3-1.5.38-.08.29,1.42c.09.46.35.65.76.56.2-.04.35-.14.45-.31.1-.16.13-.36.08-.59l-.27-1.36.38-.08.49,2.43-.38.08-.08-.38c-.12.32-.35.51-.7.58-.3.06-.54.01-.73-.14-.19-.15-.32-.37-.38-.66Z"/>
          <path class="cls-5" d="M168.95,57.76l-.52-2.43.38-.08.11.51c.04-.18.12-.34.26-.48.14-.14.32-.23.55-.28l.09.42c-.27.06-.48.19-.62.38-.14.2-.18.46-.1.81l.23,1.07-.38.08Z"/>
          <path class="cls-5" d="M170.88,56.07c-.08-.35-.03-.67.15-.97.18-.3.44-.49.77-.57.32-.07.62-.01.9.18.29.19.47.46.54.8l.03.16-1.97.45c.08.22.22.39.42.49.2.1.41.13.64.08.29-.07.52-.22.68-.45l.24.23c-.22.29-.5.48-.84.56-.35.08-.68.03-.99-.14-.3-.18-.5-.45-.58-.82ZM171.23,55.82l1.6-.37c-.07-.22-.2-.38-.39-.49-.18-.11-.38-.14-.58-.09-.2.05-.36.16-.48.34-.12.18-.17.38-.15.61Z"/>
          <path class="cls-5" d="M174.51,56.15l.11-.35c.25.16.53.2.83.13.17-.04.31-.11.41-.21.1-.1.13-.2.11-.31-.01-.06-.04-.1-.08-.14s-.1-.06-.17-.07c-.07-.01-.14-.02-.2-.03-.06,0-.14,0-.23,0-.14,0-.26,0-.35-.01-.09,0-.18-.03-.29-.06-.11-.03-.19-.08-.25-.15s-.11-.16-.14-.27c-.05-.21,0-.39.15-.56.15-.17.33-.28.55-.34.29-.07.59-.05.9.06l-.11.34c-.22-.08-.45-.09-.69-.04-.13.03-.23.09-.32.18-.08.08-.11.17-.09.26.01.05.04.1.07.13s.09.06.16.07c.07.01.13.02.18.02h.22c.14,0,.26,0,.35.01s.2.03.31.06c.11.03.2.08.27.16.07.07.12.17.15.28.06.24,0,.45-.16.62-.17.18-.38.3-.64.36-.39.1-.74.05-1.04-.14Z"/>
        </g>
      </g>
    </g>
  </g>
</svg>