<?xml version="1.0" encoding="UTF-8"?>
<svg id="Layer_2" data-name="Layer 2" xmlns="http://www.w3.org/2000/svg" viewBox="0 0 1033.41 888.93">
  <defs>
    <style>
      .cls-1 {
        fill: #d56458;
      }

      .cls-1, .cls-2, .cls-3, .cls-4, .cls-5, .cls-6, .cls-7, .cls-8, .cls-9, .cls-10, .cls-11, .cls-12, .cls-13, .cls-14, .cls-15, .cls-16, .cls-17, .cls-18, .cls-19, .cls-20, .cls-21, .cls-22, .cls-23, .cls-24, .cls-25 {
        stroke-width: 0px;
      }

      .cls-2 {
        fill: #d46054;
      }

      .cls-3 {
        fill: #e53d2c;
      }

      .cls-4 {
        fill: #e13b2a;
      }

      .cls-5 {
        fill: #d04537;
      }

      .cls-6 {
        fill: #f5cbc4;
      }

      .cls-7 {
        fill: #7c7b7c;
      }

      .cls-8 {
        fill: #1286c6;
      }

      .cls-9 {
        fill: #f9eeeb;
      }

      .cls-10 {
        fill: #d66256;
      }

      .cls-11 {
        fill: #1f9552;
      }

      .cls-12 {
        fill: #e53c2c;
      }

      .cls-13 {
        fill: #d35b4f;
      }

      .cls-14 {
        fill: #fbf2ef;
      }

      .cls-15 {
        fill: #d26a5f;
      }

      .cls-16 {
        fill: #fcf7f5;
      }

      .cls-17 {
        fill: #8a2d8f;
      }

      .cls-18 {
        fill: #e43d2d;
      }

      .cls-19 {
        fill: #d88d84;
      }

      .cls-20 {
        fill: #efefef;
      }

      .cls-21 {
        fill: #757475;
      }

      .cls-22 {
        fill: #6b696b;
      }

      .cls-23 {
        fill: #717172;
      }

      .cls-24 {
        fill: #e23037;
      }

      .cls-25 {
        fill: #fcf4f1;
      }
    </style>
  </defs>
  <g id="Layer_4" data-name="Layer 4">
    <g>
      <path class="cls-12" d="M177.99,592.39c-6.56-42.5-13.11-85-19.67-127.5.61-.42,1.21-.84,1.82-1.25,28.65,32.3,57.3,64.59,87.02,98.08,0-14.74.28-27.85-.06-40.95-.57-21.79-1.6-43.56-2.22-65.34-.05-1.85,1.12-5.06,2.39-5.44,14.38-4.3,28.89-8.18,45.49-12.76-7.76,71.02-15.32,140.3-22.89,209.57-.68.23-1.37.46-2.05.69-17-22.6-34-45.2-51-67.8-.56.19-1.11.38-1.67.57,2.37,10.14,4.71,20.3,7.12,30.43,3.39,14.21,6.79,28.42,10.29,42.61.81,3.28,1.45,6.12-3.11,6.95-12.83,2.35-25.65,4.77-39.4,7.33-1.86-9.86-3.59-19.02-5.57-29.49-13.91,7.21-27.26,13.54-39.98,20.96-6.71,3.91-10.36,2.83-14.32-3.39-3.7-5.82-9.01-10.65-12.48-16.57-4.8-8.19-10.59-10.05-19.59-7.21-11.46,3.61-23.28,6.2-35.07,8.63-5.14,1.06-6.81,3.51-6.65,8.39.29,8.71.1,17.45.47,26.15.2,4.61-1.11,7.04-6.03,7.8-16.19,2.52-32.33,5.39-50.82,8.53,4.49-111.32,8.94-221.69,13.39-332.05.68-.32,1.35-.65,2.03-.97,53.49,78.27,106.99,156.55,160.48,234.82.7-.26,1.39-.53,2.09-.79ZM89.3,579.63c-11.8-25.4-22.89-49.29-34.12-73.46,0,24.82-.07,48.76.18,72.71.01,1.39,2.74,4.02,4.04,3.93,9.6-.71,19.17-1.96,29.89-3.18Z"/>
      <path class="cls-17" d="M659.55,218.26c6.05,18.1,15.61,32.4,28.74,44.91,8.41,8.02,16.43,17.04,22.29,26.99,7.11,12.08,15.89,19.06,30.07,18.63.92-.03,1.86.39,3.53.77-7.79,18.73-20.9,30.23-39.89,35.68-5.26,1.51-9.94,5.01-14.89,7.59,3.24,4.68,5.87,9.98,9.85,13.92,9.36,9.26,19.64,17.07,35.29,12.16-3.33,4.8-6.26,9.95-10.08,14.33-5.21,5.96-10.75,11.74-16.76,16.88-11.24,9.62-11.91,9.55-25.83,8.45,4.5-9.17,9.67-18.55,13.78-28.38,4.58-10.92-7.47-29.76-19.29-30.99-1.48-.15-3.1.06-4.53.5-9.87,3.09-21.18,22.45-19.21,32.43.79,4.01,1.02,8.13,1.67,12.17.91,5.71,1.96,11.4,3,17.4h-53.7c-.2-.74-.41-1.48-.61-2.22,3.62-1.98,7.27-3.92,10.87-5.93,7.14-3.99,14.23-8.08,21.41-11.99,5.22-2.84,6.99-7.5,6.4-12.9-.72-6.6-1.61-13.29-3.52-19.61-.73-2.42-4.2-4.93-6.91-5.7-18.88-5.37-34.46-15.58-46.91-30.66-1.6-1.94-2.89-4.13-4.34-6.22,6.55-5.63,13.21-10.46,18.8-16.31,15.07-15.8,24.34-33.91,22.36-56.78-.79-9.09.84-18.37,1.2-27.57.21-5.33-.11-10.68.2-16,.61-10.38,1.02-20.8,2.44-31.08.83-5.99.5-10.57-3.83-15.42-12.49-14.01-17.04-31.86-22.35-49.25-.22-.73-.35-1.5-.43-2.27-2-18.91-11.94-32.19-28.71-40.7-.8-.4-1.27-1.44-2.63-3.06,7.37-3.48,14.3-7.2,13.12-19.11,9.29,12.25,18.88,18,34.44,10.66-22.93,32.13-12.59,56.7,9.05,79.29.88-.16,1.77-.32,2.65-.47-.35-1.8-.63-3.61-1.06-5.4-2.85-11.89,1.06-21.58,12.26-26.64,7.37-3.33,10.67-7.81,10.45-15.86-.25-9.1,6.36-13.2,14.6-17.63-.52,17.14,13.74,16.9,23.4,21.15,18.35,8.08,23.36,13.92,22.39,34.13-.45,9.44,1.89,16.48,9.49,21.9,1.44,1.03,2.63,2.44,3.84,3.77,8.72,9.62,7.62,13.6-3.72,19.8-4.62,2.52-8,7.31-11.93,11.05-6.44-8-6.21-10.66-.33-18.33,2.63-3.44,3.85-7.95,5.72-11.98-4.36-.42-8.74-1.3-13.06-1.09-2.95.14-6.01,1.45-8.71,2.83-7.18,3.68-14.46,4.61-22.36,2.72-6.6-1.58-9.43,1.03-6.79,7.07,2.45,5.61,6.4,11.12,11.03,15.11,11.83,10.19,24.3,19.65,36.76,29.07,3.38,2.55,7.47,4.46,11.53,5.73,8.4,2.63,10.36,5.79,7.63,14.09-2.16,6.56-5.82,10.35-12.23,12.02-.69-2.61-1.36-5.25-2.09-7.87-3.38-12.31-12.06-18.78-24.71-18.06-9.17.52-18.32,1.42-28.81,2.25Z"/>
      <path class="cls-3" d="M643.24,461.54c-1.49-.18-2.99-.35-4.48-.53-3.55,0-7.09,0-10.64,0-2.52.18-5.05.35-7.57.53-3.14.28-6.27.56-9.41.84-1.04.07-2.07.15-3.11.22-1.1-1.7-2.2-3.41-3.3-5.11,0,0,.06-.19.06-.19.16-.41.31-.83.47-1.24,3.24-7.8,6.14-15.76,9.91-23.3,1.19-2.39,4.6-5.08,7.1-5.19,26.2-1.13,51.78,1.84,75.47,14.1,18.95,9.8,29.19,25.91,32.7,46.63.3,3.09.61,6.18.91,9.26,0,2.06-.01,4.13-.02,6.19-.17,2.59-.33,5.17-.5,7.76-.35,2.55-.71,5.1-1.06,7.65-.49,1.54-.97,3.08-1.46,4.62-.06,2.54-.12,5.09-.18,7.63-.36.56-.73,1.12-1.09,1.68-.36,1.25-.72,2.51-1.08,3.76-4.16,11.61-8.32,23.22-12.47,34.83-.13.92-.26,1.85-.38,2.77.58,1.87,1.16,3.75,1.74,5.62.89,1.74,1.78,3.47,2.67,5.21,1.87,2.77,3.75,5.54,5.62,8.31,1.21,1.32,2.42,2.65,3.64,3.97,2,1.57,4.01,3.14,6.01,4.71h0c1.57.94,3.14,1.89,4.71,2.83.37.27.78.41,1.24.41,7.87,1.98,15.74,3.96,23.6,5.94-.24,1.38-.49,2.75-.73,4.13-1.16,2.81-2.32,5.62-3.49,8.43-.98,2.23-1.96,4.46-2.94,6.7-1.68,3.92-3.35,7.84-5.03,11.76,0,0-.22.43-.22.43-.49.34-.99.68-1.48,1.03-4.19-.03-8.38-.06-12.57-.09-1.59-.36-3.18-.71-4.77-1.07-.98-.14-1.96-.28-2.93-.42-2.61-.9-5.23-1.8-7.84-2.7-.81-.28-1.61-.56-2.42-.84-.69-.36-1.39-.71-2.08-1.07-.3-.28-.65-.42-1.06-.42-.68-.37-1.35-.75-2.03-1.12-.28-.29-.62-.44-1.02-.44-.67-.42-1.34-.84-2.02-1.26-.2-.3-.47-.47-.83-.51-2.35-1.73-4.7-3.47-7.04-5.2-.2-.38-.52-.6-.94-.68-3.49-3.94-6.77-8.11-10.59-11.7-1.2-1.13-4.27-1.57-5.76-.85-4.7,2.29-9.07,5.29-13.56,8.01,0,0,0-.01,0-.01-.46.16-.92.31-1.38.46-.94.29-1.87.57-2.81.86-9.31.5-18.62,1.01-27.93,1.51-1.07-.2-2.13-.41-3.2-.61-6.68-2.63-13.36-5.26-20.04-7.88-1.27-.78-2.55-1.56-3.82-2.34-1.79-1.34-3.57-2.68-5.36-4.02-1.09-1.01-2.19-2.02-3.28-3.03-.47-.48-.94-.96-1.4-1.43-1.52-1.6-3.04-3.21-4.56-4.81-.94-1.14-1.88-2.29-2.82-3.43-.65-.89-1.3-1.78-1.95-2.67-.84-1.23-1.68-2.45-2.51-3.68-.04-.41-.22-.72-.56-.94-3.12-9.27-6.24-18.54-9.36-27.81-.05-5.1-.09-10.21-.14-15.31.07-.55.14-1.1.21-1.65.06-.52.12-1.03.18-1.55.17-.14.5-.3.49-.43-.03-.42-.18-.83-.28-1.25.12-.76.24-1.52.35-2.27,2.34-5.87,4.67-11.74,7.01-17.61.34-.24.51-.56.53-.97,1.84-2.77,3.68-5.54,5.52-8.31.36-.2.58-.5.66-.91.95-1.17,1.9-2.34,2.85-3.51,1.5-1.56,3.01-3.11,4.51-4.67,1.52-1.05,3.04-2.09,4.56-3.14,0,0,.01,0,.01,0,9.22-3.18,18.45-6.36,27.67-9.53,3.13-.02,6.25-.03,9.38-.05,2.61.35,5.22.69,7.83,1.04.97.21,1.94.42,2.92.62,5.66,2.07,11.32,4.15,16.98,6.22,1.01.54,2.02,1.07,3.03,1.61,2.72,2.5,4.65,2.75,4.91-1.73.24-3.95.48-7.91.72-11.86-1.41-4.09-2.82-8.19-4.23-12.28,0,0-.06-.09-.06-.09-1.43-1.62-2.87-3.24-4.3-4.86,0,0,.01.01.01.01-.57-.46-1.14-.92-1.71-1.39,0,0,0,0,0,0-.56-.39-1.11-.78-1.67-1.17,0,0-.31-.18-.31-.18-.38-.22-.76-.44-1.13-.66-.57-.32-1.14-.64-1.71-.96-3.6-1.22-7.19-2.44-10.79-3.66-.95-.21-1.89-.41-2.84-.62-2.64-.37-5.28-.74-7.91-1.11ZM649.64,577.27c10.24-.83,17.14-5.38,21.55-13.78,5.17-9.83,6.46-19.8.42-29.87-8.65-14.42-24-16.65-36.02-5.18-10.89,10.4-10.47,33.48,1.26,42.84,3.58,2.85,8.49,4.04,12.79,5.99Z"/>
      <path class="cls-3" d="M521.35,582.36c-.17-1.5-.34-3-.51-4.49-.29-2.62-.59-5.24-.88-7.86-.28-2.5-.57-5.01-.85-7.51-.4-7.25-.79-14.49-1.19-21.74-.82-.09-1.63-.17-2.45-.26-2.93,10.37-5.85,20.74-8.78,31.11-.19.88-.37,1.77-.56,2.65-.29.64-.58,1.29-.86,1.93-.34,1.3-.68,2.6-1.02,3.9-.25.74-.5,1.49-.75,2.23-2.76,8.68-5.52,17.35-8.79,27.66-16.73-18.29-32.36-35.38-49.33-53.93-3.68,18.19-7.05,34.78-10.43,51.51h-41.13c8.35-57.47,16.56-114.04,24.77-170.61.64-.11,1.28-.22,1.92-.33,18.82,33.31,37.64,66.62,57.38,101.55,19.01-44.28,37.26-86.8,56.5-131.63,1.71,5.88,2.97,9.5,3.81,13.21,12.32,54.5,24.49,109.03,37,163.48,1.47,6.41-.11,8.61-6.45,9.63-14.17,2.3-28.22,5.3-42.32,8.02-1.13-1.05-2.27-2.11-3.4-3.16-.26-2.51-.53-5.02-.79-7.53-.3-2.61-.6-5.22-.89-7.83Z"/>
      <path class="cls-12" d="M768.15,531.82c-1.02.17-2.04.34-3.06.52-1.5.23-3.01.47-4.52.71-.53.05-1.06.1-1.58.15-1.26.23-2.51.45-3.77.68-2.33.3-4.66.6-6.99.91-4.93.35-9.86.71-14.96,1.07.25-3.09.43-5.35.61-7.6.23-1.43.47-2.86.7-4.29,0,0,.18.09.18.09.69-2.71,1.38-5.43,2.07-8.14.27-1.38.54-2.76.81-4.14,1.9-7.33,3.81-14.66,5.72-21.99,0,0,.07-.1.07-.1,1.06-.5,2.12-1,3.18-1.51.98-.17,1.95-.34,2.93-.52,2.84-.59,5.69-1.19,8.53-1.78.8-.11,1.6-.22,2.4-.33,7.21-1.23,14.42-2.46,21.63-3.69,1.06-.26,2.12-.53,3.18-.79.96-.15,1.92-.29,2.88-.44,0,0,.08-.02.08-.02,3.49-.52,8.14,1.12,8.75-4.72.14-4.06.28-8.12.42-12.17.43-8.76.87-17.51,1.3-26.27.11-2.53.21-5.06.32-7.59.38-4.66.75-9.33,1.13-13.99.16-6.11.33-12.22.5-18.33.4-4.65.81-9.3,1.21-13.96.07-1.05.13-2.1.2-3.15.47-.48.94-.96,1.41-1.45.53-.1,1.06-.19,1.6-.29,1.08-.35,2.16-.7,3.24-1.05,1.5-.12,3-.25,4.5-.37,2.08-.45,4.16-.89,6.24-1.34.99-.1,1.98-.21,2.97-.31,1.59-.38,3.17-.75,4.76-1.13l2.96-.35c2.09-.4,4.18-.81,6.27-1.21,1.48-.19,2.97-.39,4.45-.58,3.61-.29,7.22-.59,10.83-.88.17,5.12.34,10.24.51,15.35-.95,14.4-1.89,28.81-2.84,43.21-.16,4.06-.31,8.11-.47,12.17-.95,9.89-1.91,19.77-3.02,31.33,11.08-3.2,20.05-5.79,29.01-8.38.97-.18,1.94-.36,2.91-.54,3.13-.89,6.26-1.77,9.39-2.66.98-.16,1.97-.33,2.95-.49,1.22.21,2.43.43,3.65.64.03,1.04.06,2.08.09,3.12-.06.55-.12,1.11-.18,1.66-.1,1.01-.21,2.01-.31,3.02-.22,2.12-.43,4.25-.65,6.38-.28,4.04-.56,8.07-.84,12.11-.22,2.12-.44,4.25-.66,6.37-.15.95-.3,1.9-.45,2.85-.57,9.21-5.1,15.14-14.29,17.2-1.51.56-3.02,1.13-4.54,1.69-1.87.59-3.74,1.18-5.6,1.77-1.2.47-2.41.94-3.61,1.41-3.89,1.06-7.82,1.99-11.66,3.22-11.98,3.83-11.96,3.87-11.2,16.42-.1,4.58-.21,9.16-.31,13.74-.42,5.68-.83,11.36-1.25,17.05-.09,1.5-.18,3.01-.28,4.51-.41,6.71-.81,13.42-1.22,20.14-.13,4.58-.26,9.15-.4,13.73-.44,6.17-.89,12.35-1.33,18.52-.09,3.57-.18,7.15-.27,10.72-.42,6.17-.84,12.35-1.26,18.52-.09,2.55-.19,5.1-.28,7.65.69,9.87-3.7,15.25-13.79,15.6-2,.15-4.01.3-6.01.45-2.11.33-4.22.66-6.33.99-.98.14-1.96.27-2.95.41-3.12.42-6.23.84-9.35,1.26-1.93-.15-3.87-.31-6.56-.52,0-4.26,0-8.18,0-12.09.46-6.19.93-12.37,1.39-18.56.08-1.5.17-3.01.25-4.51.35-6.21.71-12.42,1.06-18.62.13-2.01.26-4.02.39-6.03.94-13.9,1.87-27.79,2.81-41.69.13-5.08.27-10.17.4-15.25.91-8.73,1.8-17.47,2.73-26.2,1.26-11.94.6-12.6-11.47-10.66-2.7.43-5.34,1.27-8.01,1.92-2.55.43-5.1.85-7.65,1.28-.55.06-1.09.12-1.64.18Z"/>
      <path class="cls-17" d="M422.73,424.15c-12.82,6.35-28.46,3.23-38.2-6.91-5.48-5.7-10.89-11.48-16.87-17.79,4.06-3.82,7.69-8.96,12.65-11.49,6.85-3.49,8.95-9.08,9.59-15.46,1.07-10.65,5.13-19.7,12.12-27.64,5.4-6.14,5.23-12.87.48-18.97-15.13-19.46-18.81-42.78-22.95-65.99-1.7-9.53-.42-18.52,5.97-26.08,3.41-4.03,2.04-6.9-.19-10.88-4.69-8.39-10.19-16.89-12.17-26.03-1.24-5.76,3.3-12.76,5.34-19.54-3.24-.96-8.59-2.32-13.79-4.13-14.03-4.89-18.32-11.6-17-26.08,1.45-15.87,18.99-32.33,33.07-31.03,16.13,1.48,33.04,19.19,31.93,33.98-.25,3.4-2.48,6.66-4.11,10.8,3.88-.81,7.97-1.6,12.03-2.54,1.74-.4,3.52-1.87,5.07-1.61,11.18,1.9,15.97-5.79,20.83-13.45,7.5-11.82,16.21-22.63,21.33-36.24,2.88-7.65,4.74-14.52,4.57-22.42-.14-6.6,3.42-8.65,14.98-8.97.07.87-.21,2.1.27,2.62,6.56,7.04.44,14.52.8,21.75.06,1.21-.14,2.63-.74,3.63-10.36,17.26-21.53,34.09-30.93,51.85-4.99,9.43-6.77,20.52-10.28,30.76-6.37,18.56-2.35,37.4-2.01,56.17.16,8.52-1.4,17.07-1.98,25.61-1.32,19.52-2.48,39.05-3.8,58.57-.13,1.91-.56,5.15-1.55,5.44-7.87,2.32-6.51,9.2-8.41,14.77-1.67,4.89-5.34,9.09-8.02,13.66-5.55,9.47-11.61,18.7-16.36,28.55-5.05,10.49-.22,22.71,10.56,29.91,2.42,1.61,4.84,3.23,7.76,5.17Z"/>
      <path class="cls-3" d="M1019.16,629.95c-1.96,13.61-3.5,25.97-5.76,38.2-.35,1.91-3.85,4.09-6.24,4.64-21.79,4.98-44.12,6.06-65.62.92-19.07-4.56-32.38-18.99-40.31-36.62-15.44-34.31-15.22-69.34.41-103.49,11.05-24.15,40.51-40.15,66.22-38.07,31.21,2.52,51.59,18.72,61.14,47.88,5.07,15.47,4.61,31.17,4.15,47.82-14.47,1.03-28.45,2.04-42.42,3.02-14.57,1.02-29.13,2.15-43.71,2.93-4.73.25-6.67,2.45-7.71,6.79-3.6,14.97-.36,26.23,10.51,33.4,2.85,1.88,6.45,3.19,9.85,3.56,17.42,1.91,34.2-.98,50.38-7.61,2.53-1.04,5.13-1.9,9.11-3.37ZM990.93,566.86c-1.69-7.15-2.57-13.2-4.58-18.84-3.47-9.71-11.61-12.82-21.17-13.67-9.17-.81-13.8,5.25-16.78,12.03-2.6,5.9-3.35,12.67-4.33,19.15-.22,1.47,2.09,4.82,3.09,4.76,14.19-.85,28.35-2.14,43.78-3.43Z"/>
      <path class="cls-18" d="M310.22,437.57c17.65,4.68,34.74,9.02,51.65,13.97,1.89.55,3.78,4.5,3.97,7,3.91,51.58,7.57,103.18,11.29,154.78,1.06,14.69.79,14.9-14.03,12.92-7.62-1.02-15.26-1.94-22.92-2.53-4.33-.34-6.13-2.05-6.72-6.49-7.85-58.69-15.89-117.35-23.85-176.02-.09-.7.23-1.45.61-3.62Z"/>
      <path class="cls-18" d="M363.08,392.3c-1.26,18.12-20.76,32.77-40.01,29.26-10.13-1.85-21.42-7.78-23.2-20.21-1.61-11.28,4.94-24.76,15.34-30.34,15.65-8.39,32.46-6.39,40.9,5.62,3.22,4.59,4.7,10.41,6.97,15.67Z"/>
      <path class="cls-4" d="M330.88,818.92c3.03.25,6.06.5,9.08.74.82.86,1.63,2.45,2.45,2.45,9.39,0,18.78-.24,28.17-.41,1.57.04,3.13.08,4.7.12,8.6,1.25,17.18,3.49,25.79,3.59,33.88.38,67.77.23,101.66,0,15.79-.11,31.57-.78,47.35-1.38,1.42-.05,2.78-1.51,4.17-2.31,1.05-.04,2.09-.09,3.14-.13,2.47.31,4.98,1.02,7.42.86,14.16-.89,28.31-1.86,42.45-3.05,16.43-1.38,32.84-2.98,49.26-4.52,6.14-.58,12.27-1.27,18.41-1.91.13.56.26,1.12.38,1.69l-4.32,3.5c-1.56.18-3.11.36-4.67.54-6.66.92-13.32,1.85-19.98,2.77-1.03.12-2.06.24-3.1.36-7.99-1.29-15.94-2.33-23.08,2.96-1.53.1-3.05.21-4.58.31-1.69-.36-3.4-1.1-5.06-1.01-17.5,1-35,1.96-52.47,3.36-4,.32-7.86,2.3-11.79,3.51-1.51.05-3.02.1-4.53.14-15.23-.09-30.46-.22-45.7-.26-18.83-.05-37.67-.09-56.5-.02-15.22.06-30.43.29-45.65.44-1.49-.08-2.97-.17-4.46-.25-1.18-.76-2.33-2.13-3.55-2.2-11.7-.67-23.41-1.13-35.12-1.65-1.54.27-3.09.55-4.63.82-1.98-.26-3.96-.52-5.95-.78-1.61-.55-3.22-1.09-4.83-1.64-2.56-.02-5.13-.05-7.69-.07l-.26.61c-2.65-.29-5.3-.57-7.94-.86,0,0-.33-.03-.33-.03-4.36-.49-8.72-.98-13.08-1.46-.48-.44-.95-.88-1.43-1.32-3.09-.47-6.19-.94-9.28-1.42-1.83.22-3.65.43-5.48.65,0,0-.46.14-.46.14,0,0-.41-.23-.41-.24-.19-.39-.37-.78-.56-1.17-.24.35-.48.7-.72,1.05-1.59-.19-3.17-.38-4.76-.57-.98-.53-1.97-1.05-2.96-1.58-.33-1.63-.67-3.26-1-4.9,2.05.18,4.11.36,6.16.55,1.3.09,2.61.17,3.91.26.99.04,1.99.09,2.98.13,1.07.83,2.08,2.29,3.21,2.38,9.76.73,19.54,1.22,29.31,1.77,2.1-.19,4.19-.38,6.29-.57Z"/>
      <path class="cls-8" d="M521.42,49.72c4.19-13.3,1.26-22.96-10.23-30.68,13.34-.26,22.66-4.88,25.93-19.05,4.66,12.22,11.85,19.72,26.62,17.62-5.07,6.19-10.07,9.99-11.65,14.9-1.49,4.6.65,10.38,1.39,17.59-10.92-8.7-21.17-9.86-32.05-.39Z"/>
      <path class="cls-10" d="M195.75,740.95c2.21.32,4.51.38,6.63,1.01,7.46,2.19,14.74,5.83,22.32,6.56,8.7.84,14.81-4.81,15.71-11.63.9-6.83-2.92-11.26-12.39-14.02-5.65-1.64-11.54-2.58-17.07-4.54-9.64-3.41-14.23-9.9-13.65-18.16.6-8.45,6.62-15.01,16.32-16.98,9.1-1.85,17.96-.63,25.91,4.35,1.61,1.01,2.14,3.75,3.17,5.69-2.02-.14-4.1-.04-6.06-.45-6.88-1.42-13.71-4.14-20.58-4.22-6.36-.07-11.8,3.74-12.42,11.26-.59,7.16,3.71,10.89,9.87,12.79,6.11,1.89,12.43,3.12,18.53,5.05,9.81,3.11,14.53,9.05,14.47,17.55-.06,8.39-5.89,15.92-15.17,18.04-13.62,3.12-25.78-.11-35.96-9.72.13-.87.26-1.73.39-2.6Z"/>
      <path class="cls-1" d="M582.18,755.67c-15.64-1.44-28.4-10.9-32.76-25.26-4.9-16.16.3-32.91,13.02-41.96,11.6-8.25,29.98-8.09,41.19.73,1.77,1.39,2.36,4.28,3.49,6.48-2.35-.55-5.14-.47-6.99-1.74-12.63-8.7-28.32-7.82-37.99,2.43-11.07,11.73-11.23,31.06-.35,43.66,8.86,10.26,24.42,11.68,37.23,3.72,2.58-1.6,5.88-2.05,8.85-3.03-2.14,2.72-3.73,6.54-6.53,7.93-6.06,3.01-12.73,4.77-19.15,7.05Z"/>
      <path class="cls-1" d="M456.68,748.74c-7.84,5.67-16.54,7.49-25.9,3.75-6.84-2.73-10.77-7.81-10.45-15.39.31-7.24,4.34-12.6,11.18-13.87,8.62-1.6,17.55-1.55,26.51-2.22,1.1-10.84-6.56-17.24-19.48-15.26-1.5.23-2.95,1.04-4.44,1.11-2.83.14-5.68-.07-8.52-.13,2.53-1.65,4.84-4.02,7.61-4.83,20.15-5.89,31.56,2.64,31.53,23.26,0,7.17.14,14.34-.11,21.49-.07,1.99-1.32,3.94-2.03,5.91-1.73-1.12-3.46-2.24-5.91-3.83ZM443.69,726.45c-1.74.2-5.11.28-8.32,1.05-5.17,1.24-8.89,4.28-8.99,10.04-.1,6.13,3.82,9.43,9.23,10.72,7.73,1.84,15.32.73,20.19-5.92,2.27-3.11,2.86-8.12,2.5-12.11-.12-1.37-5.42-2.41-8.43-3.33-1.43-.44-3.06-.25-6.19-.45Z"/>
      <path class="cls-2" d="M659.38,750.2c-8.83,1.45-15.99,3.73-23.06,3.5-9.05-.29-15.39-7.44-15.63-15.16-.26-8.23,4.88-14.95,14.31-16.28,7.5-1.06,15.27-.21,22.97-.21,2.2-8.45-2.43-15.73-11.59-16.23-5.17-.28-10.44,1.77-15.7,2.48-1.45.19-3.04-.7-4.57-1.09.87-1.27,1.56-3.43,2.65-3.66,5.95-1.29,12.06-3.15,18.02-2.87,11.64.55,17.64,7.18,18.11,18.86.37,9.22.23,18.47.06,27.7-.03,1.76-1.25,3.49-1.93,5.23-1.74-1.08-3.48-2.17-3.64-2.27ZM644.1,726.41c-1.81.22-5.16.32-8.34,1.07-5.48,1.3-9.32,4.56-9.05,10.63.26,5.95,4.27,9.12,9.68,10.3,6.82,1.49,13.83.83,18.36-4.66,2.74-3.32,3.9-8.56,4.04-12.99.04-1.24-6.04-2.77-9.39-3.97-1.15-.41-2.52-.21-5.3-.39Z"/>
      <path class="cls-2" d="M771.89,729.78h-39.05c-.62,9.56,4.31,17.76,13.05,18.22,7.49.39,15.18-2.83,23.44-4.59-.47,1.2-.69,2.93-1.65,3.99-7.02,7.75-21.1,9.15-30.48,3.19-14.88-9.47-15.91-34.52-1.95-45.3,8.03-6.2,16.71-6.85,25.15-1.87,9.37,5.54,11.64,14.92,11.48,26.37ZM731.86,723.93h33.87c-1.2-12.01-6.73-18.23-16.01-18.55-9.8-.34-16.21,6.11-17.86,18.55Z"/>
      <path class="cls-13" d="M288.85,754.24c-14.39-.03-25.57-11.82-25.59-26.99-.02-14.9,11.61-26.95,25.86-26.81,14.59.15,25.84,11.97,25.66,26.96-.18,15-11.66,26.88-25.93,26.85ZM289.06,748.96c11.32.02,20.12-9.52,20-21.7-.12-12.15-8.99-21.82-20.06-21.87-11.25-.05-19.84,9.37-19.88,21.79-.04,12.33,8.6,21.75,19.95,21.78Z"/>
      <path class="cls-10" d="M670.99,818.14l4.32-3.5c-.13-.56-.26-1.12-.38-1.69-6.14.64-12.27,1.34-18.41,1.91-16.42,1.54-32.83,3.15-49.26,4.52-14.13,1.18-28.29,2.15-42.45,3.05-2.45.15-4.95-.55-7.42-.86,9.32-.94,18.64-1.79,27.94-2.83,47.74-5.32,95.47-10.66,143.2-16.08,8.87-1.01,17.7-2.37,26.56-3.56,1.8.95,3.59,1.91,5.38,2.86-12.35,2.35-24.7,4.7-37.05,7.06.64-.99,1.29-1.98,2.26-3.48-15.23,2.23-29.92,4.39-44.61,6.54.12.84.24,1.68.36,2.52,4.81-.71,9.61-1.52,14.44-2.1,8.16-.97,16.35-1.79,24.52-2.68-16.47,2.77-32.94,5.54-49.41,8.31Z"/>
      <path class="cls-2" d="M357.43,755.11c-11.59-.81-21.48-8.12-25.15-19.22-3.62-10.94.62-23.86,10.1-30.83,8.18-6.01,20.53-6.33,28.83-.24,1.99,1.47,2.84,4.5,4.21,6.81-2.29-.66-4.95-.8-6.82-2.08-8.67-5.91-18.4-5.43-25.16,1.61-8.05,8.38-8.52,22.18-1.05,30.9,6.49,7.58,16.87,8.82,25.74,3.36,2.27-1.4,5.08-1.92,7.64-2.85-1.84,2.66-3.13,6.21-5.65,7.76-3.77,2.33-8.42,3.24-12.69,4.76Z"/>
      <path class="cls-24" d="M517.64,56.7c3.79,9.42,9.48,14.04,19.5,13.86-7.3,6.15-10.58,12.97-6.91,22.5-8.11-4.54-15.67-6.95-23.65.52,1.9-9.32,1.49-16.88-9.76-22.56,10.85-1.58,19.07-3.24,20.82-14.31Z"/>
      <path class="cls-11" d="M558.22,115.82c-9.75,6.03-12.27,12.9-8.61,22.73-5.01-2.23-8.42-4.95-11.83-4.94-3.51,0-7.01,2.66-11.56,4.61.32-4.27,1.73-8.48.6-11.85-1.19-3.57-4.79-6.33-8.31-10.63,10.21,1,15.78-3.98,19.14-12.83,2.7,9.77,9.21,13.12,20.58,12.92Z"/>
      <path class="cls-10" d="M554.25,821.71c-1.39.8-2.75,2.26-4.17,2.31-15.78.61-31.57,1.28-47.35,1.38-33.88.23-67.77.39-101.66,0-8.61-.1-17.2-2.33-25.79-3.59,16.37.35,32.75,1.08,49.12.97,39.73-.26,79.45-.93,119.17-1.39,3.56-.04,7.12.2,10.67.31Z"/>
      <path class="cls-22" d="M504.88,867.65v20.41c-.82.01-1.63.03-2.45.04v-31.16c9.17,3.59,11.54,14.51,20.45,20.31.35-7.23.67-13.85.99-20.47.94.02,1.89.03,2.83.05v32.11c-8.86-5.66-12.63-15.38-21.81-21.28Z"/>
      <path class="cls-15" d="M484.86,716.99c0-10.49-.13-20.98.13-31.47.04-1.74,1.79-3.44,2.76-5.16.98,1.78,2.79,3.55,2.8,5.34.2,20.72.18,41.45,0,62.17-.01,1.59-1.63,3.17-2.51,4.75-1.06-1.64-3-3.26-3.05-4.94-.29-10.23-.14-20.47-.14-30.7Z"/>
      <path class="cls-21" d="M301.07,857.94c-.68,6.92-.36,13.52-2.27,19.39-1.19,3.66-5.29,7.64-8.95,8.86-3.35,1.12-7.87-1.27-11.88-2.11.17-.9.34-1.79.51-2.69h13.87c-13.56-5.65-16.94-8.43-15.47-15.7,3.13-15.45,14.45-7.82,24.19-7.75ZM286.51,876.03c1.17-.04,2.34-.09,3.5-.13,1.91-2.78,4.98-5.37,5.46-8.38.75-4.66-2.73-8.33-7.28-7.42-2.78.55-6.61,4.42-6.82,7.05-.22,2.81,3.26,5.91,5.13,8.88Z"/>
      <path class="cls-22" d="M195.76,868c-4.02,0-7.17.76-9.7-.17-3.97-1.46-9.64-3.29-10.73-6.35-1.45-4.02-.55-10.4,1.97-13.84,1.89-2.57,7.9-2.51,12.14-2.81,2.48-.17,5.06,1.27,8.95,2.37-.81,6.43-1.71,13.57-2.63,20.8ZM196.18,857.47c-4.5-4.56-6.67-8.61-9.69-9.39-4.86-1.25-8.11,2.3-8.57,7.37-.42,4.68,1.66,8.71,6.55,8.36,3.22-.22,6.24-3.25,11.7-6.35Z"/>
      <path class="cls-10" d="M393.9,831.26c15.22-.15,30.43-.39,45.65-.44,18.83-.07,37.67-.03,56.5.02,15.23.04,30.46.17,45.7.26-15.3.71-30.61,2.11-45.9,2.01-33.98-.22-67.96-1.18-101.94-1.85Z"/>
      <path class="cls-23" d="M136.58,837.06c.96-.29,2.16-1.1,2.85-.79,5.63,2.54,11.32,3.68,17.6,3.08,1.77-.17,5.05,2.44,5.55,4.33,1.82,6.98.11,13.65-2.68,19.95-1-.13-2-.26-3-.39.5-3.96,1.63-7.97,1.29-11.86-.25-2.91-2.4-5.65-3.71-8.47-2.32,2.18-5.44,3.96-6.76,6.63-1.7,3.46-1.96,7.63-2.84,11.5-.98-.17-1.96-.34-2.94-.5.48-4.25.97-8.5,1.43-12.75.63-5.91-1.38-8.99-7.84-7.23.35-1.16.71-2.33,1.06-3.49Z"/>
      <path class="cls-5" d="M692.31,747.13c-.01.9-.02,1.81-.04,2.71-1.62-.03-3.25-.07-4.87-.1-.08-13.95-.31-27.9-.07-41.84.03-1.83,2.46-3.62,3.78-5.43.4.53.8,1.07,1.19,1.61.04,2.01.07,4.03.11,6.04.14,1.17.28,2.34.42,3.52.54-1.06,1.09-2.12,1.63-3.18,4.84-5.41,9.81-10.51,20.63-6.64-5.2,2-8.53,3.28-11.86,4.56-.96.5-1.91,1.01-2.87,1.51-2.19,3.09-4.38,6.17-6.56,9.26-.26.63-.52,1.27-.78,1.9-.02.96-.04,1.92-.06,2.88-.22,7.73-.44,15.47-.65,23.21Z"/>
      <path class="cls-21" d="M84.96,824.84c6.52,4.4,16.39-1.55,18.25,7.94,1.2,6.14-1.26,12.99-2.08,19.52-1.29-.17-2.59-.34-3.88-.51.45-3.67.85-7.34,1.36-10.99.53-3.79,1.99-8.15-3.53-9.31-5.38-1.13-7.1,2.65-8.07,7.05-.79,3.57-1.79,7.1-2.7,10.65-1.03-.17-2.05-.33-3.08-.5,1.15-7.36,2.3-14.72,3.73-23.84Z"/>
      <path class="cls-22" d="M789.24,834.46c-5.62,1.05-11.24,2.11-17.46,3.27.41,2.63.77,5,1.2,7.8,5.16-.34,9.95-.66,14.74-.98.12.8.24,1.6.36,2.4-4.43,1.14-8.86,2.28-13.69,3.52v14.22l-2.74.33c-1.58-9.73-3.15-19.47-4.94-30.52,7.69-1.11,14.88-2.15,22.08-3.19.15,1.05.3,2.1.45,3.15Z"/>
      <path class="cls-15" d="M400.1,727.16c0,6.91.16,13.83-.12,20.74-.07,1.62-1.61,3.18-2.47,4.77-1.06-1.64-3-3.26-3.03-4.92-.25-13.57-.25-27.14-.01-40.71.03-1.7,1.91-3.36,2.93-5.04.9,1.73,2.51,3.43,2.59,5.19.31,6.64.12,13.31.12,19.97Z"/>
      <path class="cls-21" d="M909.92,830.43q4.08,4.34,16.33,2.37c-2.23,4.66-6.72,7.08-11.77,6.1-6.02-1.17-9.45-5.08-10.01-11.01-.56-5.95,2.11-10.52,7.91-12.52,5.16-1.77,9.62-.19,12.77,4.29,2.46,3.51,3.07,6.57-2.55,7.66-4.13.8-8.18,1.99-12.69,3.11ZM921.61,823.95c.15-.96.29-1.92.44-2.88-2.58-.76-5.48-2.61-7.67-1.99-2.47.7-4.3,3.63-6.41,5.6.5.72.99,1.44,1.49,2.16,4.05-.96,8.1-1.93,12.16-2.89Z"/>
      <path class="cls-22" d="M429.84,876.78h-17.3c1.54,7.99,2.83,8.54,13.13,6.3-2.16,4.2-6.81,6.25-11.39,3.98-5.42-2.68-8.28-7.44-7.23-13.75,1.07-6.47,5.17-9.87,11.63-10.01,6.25-.13,9.67,3.86,11.17,13.48ZM410.85,870.78l.83,2.18h12.94c.28-.65.56-1.3.83-1.95-2.25-1.35-4.53-3.8-6.75-3.75-2.64.05-5.24,2.25-7.86,3.52Z"/>
      <path class="cls-22" d="M685.37,852.75c7.18.35,15.73-1.63,18.38,1.46,3.99,4.64,3.86,12.83,5.48,19.51-1.34.28-2.68.57-4.02.85-.58-3.53-1.32-7.05-1.7-10.6-.43-3.99-.73-8.24-6.09-7.93-5.85.34-6.53,4.58-6.11,9.44.27,3.1.05,6.24.05,9.36-1.06.09-2.13.18-3.19.27-.85-6.82-1.7-13.64-2.79-22.35Z"/>
      <path class="cls-7" d="M939.51,827.9c4.01-.89,8.02-1.78,13.28-2.94-5.43-6.56-20.34-.03-15.24-13.6,1.94-5.15,8.21-5.87,14.81-1.96-4.42,1.73-7.69,3.02-12.49,4.9,6.64,4.06,17.2-.33,15.92,10.23-.33,2.68-5.34,5.57-8.76,6.83-2.26.83-5.53-1.08-8.34-1.76.27-.57.55-1.13.82-1.7Z"/>
      <path class="cls-22" d="M735.36,869.69c-11.79,2.67-16.59-.72-16.7-11.8,1.14,1.02,2.27,2.04,3.41,3.05,2.7,2.07,5.18,5.15,8.19,5.82,1.84.41,6.49-3.01,6.4-4.53-.19-3.47-2.51-6.82-3.96-10.22.12-.96.24-1.92.36-2.88,5.15-.85,7.6,1.49,8,6.54.34,4.33,1.94,8.89,1.01,12.9-.8,3.47-3.77,7.5-6.89,9.07-3.09,1.55-7.58.34-10.82-.9,4.26-1.95,8.53-3.89,12.78-5.84.14-.6.29-1.2.43-1.81-.74.2-1.48.4-2.22.6Z"/>
      <path class="cls-15" d="M172.26,798.96c18.42,2.8,36.83,5.6,55.25,8.4-1.64.66-3.28,1.31-4.99,2,.8.97,1.41,1.72,2.02,2.47-18.94-3.69-37.89-7.38-56.83-11.07,1.52-.6,3.03-1.19,4.55-1.79Z"/>
      <path class="cls-21" d="M454.45,880.93c-2.12-1-4.17-2.15-6.36-2.97-4.15-1.55-8.54-3.96-5.92-8.63,1.45-2.59,6.48-3.5,10.09-4.38,1.45-.35,3.42,1.41,4.95,3.62-3.72.38-7.43.76-12.04,1.23,3.88,6.75,15.89,3.62,13.29,13.62-.62,2.38-5.27,4.84-8.29,5.16-3.18.34-6.63-1.84-9.96-2.93.27-.8.53-1.6.8-2.4h12.96c.16-.77.31-1.55.47-2.32Z"/>
      <path class="cls-23" d="M593.24,863.22c1.43-2.51,2.86-5.02,3.94-6.9,3.63,2.16,6.81,4.05,10.64,6.34-2.04.99-4.24,2.07-6.93,3.37,1.49,5.7-4.07,14.8,9.03,14.91-.22.75-.44,1.5-.66,2.25-2.54.46-5.72,2.06-7.45,1.09-2.22-1.25-3.95-4.38-4.67-7.03-1.25-4.58-1.57-9.42-2.28-14.15-.54.04-1.08.08-1.62.12Z"/>
      <path class="cls-21" d="M386,886.19c-3.04-7.86-6.08-15.72-9.12-23.58.89-.46,1.78-.92,2.66-1.38,2.66,5.19,5.32,10.38,8.43,16.45,3.49-5.72,6.48-10.64,9.48-15.56.95.53,1.91,1.07,2.86,1.6-3.7,7.57-7.4,15.13-11.1,22.7-1.07-.08-2.15-.16-3.22-.23Z"/>
      <path class="cls-23" d="M826.76,833.73c1.01-2.19,2.14-4.61,2.98-6.44,3.81,1.57,7.24,2.98,11.89,4.9-2.5,1.19-4.65,2.21-6.8,3.22.26,13.08,1.02,14.3,10.11,16.7-2.44.83-5.2,2.76-7.24,2.17-2.12-.6-4.06-3.4-5.12-5.68-1.15-2.47-.9-5.57-1.83-8.19-.78-2.19-2.39-4.08-3.99-6.69Z"/>
      <path class="cls-13" d="M224.54,811.83c-.61-.75-1.22-1.5-2.02-2.47,1.71-.69,3.35-1.34,4.99-2,2.01.38,4.02.75,6.03,1.13.53.05,1.07.1,1.6.15,2.16.21,4.32.43,6.47.64,3.84.68,7.68,1.35,11.53,2.03,1.75.11,3.49.22,5.24.33,2.03.16,4.05.33,6.08.49,2.06.3,4.13.6,6.19.9,2.77.46,5.54.91,8.31,1.37,0,0,.07-.01.07-.02.33,1.63.67,3.26,1,4.89-.87.22-1.75.44-2.62.66-.71,0-1.42-.01-2.12-.02-.5-.05-1-.1-1.5-.15-.5-.07-.99-.14-1.49-.21-1.49-.25-2.99-.49-4.48-.74-2.64-.35-5.29-.69-7.93-1.04-4.42-.85-8.84-1.7-13.26-2.56-1.73-.14-3.45-.29-5.18-.43-1.36-.35-2.72-.69-4.08-1.04-.64,0-1.27,0-1.91-.01-2.43-.54-4.85-1.08-7.28-1.62-1.21-.1-2.42-.2-3.62-.3Z"/>
      <path class="cls-10" d="M546.27,830.95c3.93-1.21,7.79-3.19,11.79-3.51,17.47-1.4,34.97-2.36,52.47-3.36,1.66-.1,3.38.65,5.06,1.01-10.88,1.22-21.73,2.7-32.63,3.61-12.21,1.02-24.46,1.53-36.69,2.26Z"/>
      <path class="cls-22" d="M68.76,832.05c.79,4.45,1.57,8.89,2.36,13.34-8.86-8.75-18.13-13.06-29.84-4.55-.42-.66-.83-1.32-1.25-1.97,3.93-4.46,7.85-8.92,11.78-13.38,0,2.28,0,4.55,0,8.65,5.43-.67,11.19-1.38,16.95-2.09Z"/>
      <path class="cls-22" d="M220.66,851.9c-8.71-1.08-7.1,6.38-7.14,11.67-.02,2.28,3.23,4.58,5.61,7.68-1.66.08-4.82,1.19-6.59.08-1.87-1.17-3.16-4.39-3.39-6.83-.5-5.16-.15-10.41-.15-16.61.87-.95,2.66-2.92,4.4-4.84,2.29,2.8,4.64,5.66,7.26,8.86Z"/>
      <path class="cls-21" d="M874.63,847.12c-3.87,1.37-7.65,3.17-11.64,3.91-1.88.35-5.09-.7-6.07-2.19-3.94-5.99-4.91-12.76-4.53-19.64.95-.23,1.9-.45,2.85-.68.94,3.64,1.93,7.27,2.82,10.93,1.99,8.17,4.26,9.01,11.54,4.17,1.67,1.17,3.35,2.34,5.02,3.5Z"/>
      <path class="cls-7" d="M882.18,823.16c4.98-1.22,8.73-2.15,12.49-3.07.7.3,1.4.61,2.1.91-9.64,6.48-7.54,15.29-7,24.24-5.58-6.39-5.46-14.3-7.59-22.08Z"/>
      <path class="cls-7" d="M634.06,879.72c-3.69,1-8.13,3.72-10.86,2.53-2.78-1.22-4.57-6.1-5.5-9.72-1.04-4.01-.61-8.4-.83-12.62,1.24-.14,2.48-.27,3.71-.41.54,3.65,1.46,7.3,1.53,10.96.13,6.82,2.96,9.42,9.63,7.22.77.68,1.54,1.36,2.31,2.04Z"/>
      <path class="cls-7" d="M250.66,853.35c.51.08,1.02.24,1.52.22,5.15-.26,12.3-3.01,13.98,3.6,1.56,6.16-.5,13.25-1.05,19.92-.01.18-.9.29-2.53.77,0-3.91-.27-7.53.05-11.09.84-9.27-1.6-11.04-10.36-7.22-.54-2.07-1.07-4.13-1.61-6.2Z"/>
      <path class="cls-7" d="M547.99,882.62c6.97-.48,8.83-4.62,8.27-10.96-.28-3.16.33-6.41.54-9.61,1.14.03,2.28.06,3.42.1.42,7.71.84,15.42,1.29,23.61-3.53,0-6.21,0-8.88,0-1.55-1.04-3.09-2.09-4.64-3.13Z"/>
      <path class="cls-6" d="M874.47,465.14c-8.97,2.59-17.93,5.18-29.01,8.38,1.11-11.55,2.07-21.44,3.02-31.33.4,6.47,1.25,12.96,1.08,19.41-.18,6.77,2.5,7.63,8.37,6.08,5.37-1.42,11.02-1.74,16.55-2.55Z"/>
      <path class="cls-22" d="M572.51,884.68c-.54-7.23-1.09-14.45-1.66-22.1,4.52-.61,8.51-1.15,12.49-1.69l2.06,1.33c-11.81,4.19-9.25,14.16-10.15,22.74-.91-.09-1.82-.19-2.73-.28Z"/>
      <path class="cls-7" d="M811.14,855.36c5.47-4.4,3.28-9.97,2.58-15.45-.22-1.74,1.04-3.67,1.62-5.51.97,1.5,2.48,2.9,2.82,4.53,1.16,5.69,1.92,11.47,2.88,17.57-3.38.7-6.45,1.33-9.52,1.97-.13-1.04-.26-2.07-.38-3.11Z"/>
      <path class="cls-6" d="M777.44,530.36c2.67-.65,5.31-1.49,8.01-1.92,12.07-1.94,12.73-1.28,11.47,10.66-.92,8.73-1.82,17.47-2.73,26.2-.13-7.75-1.13-15.61-.17-23.23,1.42-11.29,1.11-12.14-9.97-10.92-2.15.24-4.4-.51-6.61-.8Z"/>
      <path class="cls-22" d="M332.32,851.83c.71,2.06,2.01,4.13,2.01,6.19.01,6.52-.46,13.04-.77,19.94,6.53.78,12.35,1.47,18.17,2.16-.05.96-.09,1.91-.14,2.87-3.88-.2-7.75-.4-11.63-.6l-5.97-.35c-1.56-1.39-3.11-2.78-4.67-4.18.27-2.38.54-4.76.81-7.15.22-5.31.44-10.62.66-15.92l1.53-2.96Z"/>
      <path class="cls-7" d="M136.58,837.06c-.35,1.16-.71,2.32-1.06,3.49-2.21,6.11-4.41,12.21-6.62,18.32-.93-.2-1.86-.39-2.79-.59,1.07-7.6,2.14-15.2,3.3-23.45,3.07.95,5.12,1.59,7.17,2.23Z"/>
      <path class="cls-20" d="M68.76,832.05c-5.76.71-11.52,1.42-16.95,2.09,0-4.1,0-6.38,0-8.65,0,0,.12-.01.12-.01,1.15-.29,2.31-.57,3.46-.86,1.68-1.6,3.36-3.2,5.54-5.27,1.11,3.91,1.97,6.93,3.1,10.9.99-1.65,1.45-2.41,1.9-3.17.94,1.66,1.88,3.32,2.82,4.98Z"/>
      <path class="cls-7" d="M229.3,872.22c.94-7.72,1.87-15.44,2.81-23.16,4.94,4.72,3.62,18.26-.25,23.49-.85-.11-1.71-.22-2.56-.33Z"/>
      <path class="cls-6" d="M172.26,798.96c-1.52.6-3.03,1.2-4.55,1.79-10.71-2.37-21.42-4.74-32.13-7.11.29-1.28.59-2.56.88-3.84,11.93,3.05,23.86,6.11,35.8,9.16Z"/>
      <path class="cls-21" d="M362.07,885.15c.35-7.26.7-14.51,1.06-21.77,1.4.08,4.02.19,4.02.24-.17,7.24-.52,14.48-.87,21.72-1.4-.07-2.8-.13-4.21-.2Z"/>
      <path class="cls-6" d="M506.69,571.61c2.93-10.37,5.85-20.74,8.78-31.11.82.09,1.63.17,2.45.26.4,7.25.79,14.49,1.19,21.74-1.04-2.9-2.09-5.81-3.53-9.8-3.22,6.86-6.06,12.89-8.89,18.92Z"/>
      <path class="cls-7" d="M653.39,856.04c.76,7.7,1.52,15.41,2.44,24.76-6.24-4.82-7.77-19.27-2.44-24.76Z"/>
      <path class="cls-15" d="M760.47,801.98c-1.79-.95-3.59-1.91-5.38-2.86,5.67-1.14,11.35-2.28,17.03-3.42,1.27-.31,2.53-.63,3.79-.94,4.38-.77,8.76-1.53,13.15-2.3.76.77,1.51,1.54,2.27,2.3,0,0,0,0,0,0-1.02.29-2.03.57-3.05.86-9.27,2.12-18.53,4.24-27.8,6.36Z"/>
      <path class="cls-6" d="M848.94,430.03c.95-14.4,1.89-28.81,2.84-43.21.16,7.96.79,15.94.33,23.86-.38,6.49-2.06,12.91-3.16,19.36Z"/>
      <path class="cls-22" d="M675.69,854.87c.68,7.68,1.35,15.36,2.03,23.04-1.24.09-2.49.19-3.73.28-.71-7.74-1.42-15.47-2.13-23.21,1.27-.04,2.55-.08,3.82-.12Z"/>
      <path class="cls-21" d="M547.99,882.62c1.55,1.04,3.09,2.09,4.64,3.13-8.87,1.36-11.22-.22-11.94-8.76-.37-4.45-.07-8.96-.07-13.44.75-.19,1.5-.37,2.25-.56.6,2.38,1.19,4.77,1.81,7.14,1.09,4.17,2.2,8.33,3.3,12.49Z"/>
      <path class="cls-6" d="M793.79,580.56c-.94,13.9-1.87,27.79-2.81,41.69-.1-9.23-.56-18.47-.16-27.67.2-4.71,1.93-9.35,2.97-14.02Z"/>
      <path class="cls-21" d="M65.93,827.07c-.46.76-.92,1.53-1.9,3.17-1.13-3.98-1.99-6.99-3.1-10.9-2.17,2.07-3.86,3.67-5.54,5.27-.72-.76-1.44-1.52-2.16-2.28,3.13-3.07,6.27-6.14,9.4-9.21,1.1,4.65,2.2,9.3,3.3,13.95Z"/>
      <path class="cls-23" d="M111.66,854.81c1.32-7.56,2.64-15.13,4.15-23.8,4.13,5.03,2.5,17.57-1.9,24.26-.75-.15-1.5-.3-2.26-.45Z"/>
      <path class="cls-4" d="M720.4,809.83c-8.17.88-16.36,1.71-24.52,2.68-4.83.58-9.63,1.39-14.44,2.1-.12-.84-.24-1.68-.36-2.52,14.69-2.15,29.38-4.31,44.61-6.54-.98,1.5-1.62,2.49-2.26,3.48-1.01.27-2.02.53-3.02.8Z"/>
      <path class="cls-10" d="M350.77,827.16c11.71.52,23.42.97,35.12,1.65,1.22.07,2.37,1.44,3.55,2.2-12.88-.85-25.76-1.71-38.65-2.56,0-.43,0-.86-.02-1.29Z"/>
      <path class="cls-6" d="M670.98,623.61c4.49-2.72,8.86-5.72,13.56-8.01,1.49-.73,4.56-.28,5.76.85,3.82,3.59,7.1,7.75,10.59,11.7-1.76-.79-4.24-1.09-5.17-2.45-5.61-8.21-11.99-8.66-19.66-2.95-1.23.91-3.36.61-5.08.87Z"/>
      <path class="cls-10" d="M370.58,821.7c-9.39.18-18.78.41-28.17.41-.82,0-1.63-1.6-2.45-2.45,10.2.68,20.41,1.36,30.61,2.04Z"/>
      <path class="cls-15" d="M324.59,819.49c-9.77-.56-19.55-1.04-29.31-1.77-1.12-.08-2.14-1.55-3.21-2.38,10.81.96,21.63,1.92,32.44,2.88.06.42.08.85.07,1.27Z"/>
      <path class="cls-22" d="M874.63,847.12c-1.67-1.17-3.35-2.34-5.02-3.5-.48-5.85-.97-11.7-1.45-17.55,1.01-.16,2.01-.33,3.02-.49,1.15,7.18,2.3,14.37,3.45,21.55Z"/>
      <path class="cls-6" d="M839.46,539.29c-.76-12.55-.78-12.59,11.2-16.42,3.84-1.23,7.77-2.16,11.66-3.22-3.28,1.66-6.42,3.68-9.85,4.9-5.94,2.1-12.06,3.63-10.7,12.15.12.72-1.5,1.72-2.31,2.59Z"/>
      <path class="cls-22" d="M634.06,879.72c-.77-.68-1.54-1.36-2.31-2.04.85-6.37,1.69-12.75,2.54-19.12.87,0,1.75,0,2.62,0,.37,6.9.76,13.8.95,20.71,0,.12-2.47.3-3.79.46Z"/>
      <path class="cls-6" d="M713.48,571.7c4.16-11.61,8.32-23.22,12.47-34.83-4.16,11.61-8.32,23.22-12.47,34.83Z"/>
      <path class="cls-22" d="M802.68,857.36c-1.93-6.52-3.85-13.04-5.78-19.56,1.12-.32,2.24-.65,3.36-.97,1.82,6.07,3.65,12.15,5.46,18.22-1.02.77-2.03,1.54-3.04,2.3Z"/>
      <path class="cls-7" d="M733.07,849.13c-.12.96-.24,1.92-.36,2.88-6.53-.57-9.88,2.63-10.64,8.93-1.14-1.02-2.27-2.04-3.41-3.05,1.8-8.37,6.05-10.96,14.4-8.75Z"/>
      <path class="cls-22" d="M250.66,853.35c.54,2.07,1.07,4.13,1.61,6.2-.51,1.49-1.01,2.97-1.52,4.46-.1,1.01-.21,2.03-.31,3.04-.46,2.79-.93,5.57-1.65,9.89-3.63-7.31-1.99-20.44,1.86-23.59Z"/>
      <path class="cls-6" d="M634.14,492.66c-9.22,3.18-18.45,6.36-27.67,9.53,5.15-6.73,19.48-11.67,27.67-9.53Z"/>
      <path class="cls-6" d="M638.86,626.43c9.31-.5,18.62-1.01,27.93-1.51-9.04,5.41-18.42,4.7-27.93,1.51Z"/>
      <path class="cls-6" d="M798.7,437.44c-.43,8.76-.87,17.51-1.3,26.27-1.58-8.85-3.63-17.73,1.3-26.27Z"/>
      <path class="cls-6" d="M819.07,679.47c10.09-.35,14.48-5.73,13.79-15.6-.16,4.76,1.3,10.69-1.02,13.88-1.74,2.4-8.34,1.27-12.77,1.72Z"/>
      <path class="cls-10" d="M620.18,824.78c7.14-5.29,15.09-4.25,23.08-2.96-7.69.99-15.39,1.97-23.08,2.96Z"/>
      <path class="cls-6" d="M876.08,514.78c9.19-2.06,13.72-7.98,14.29-17.2,2.81,12.71-2.22,18.77-14.29,17.2Z"/>
      <path class="cls-6" d="M579.99,563.78c3.12,9.27,6.24,18.54,9.36,27.81-7.85-7.68-10.33-17.16-9.36-27.81Z"/>
      <path class="cls-10" d="M646.35,821.46c6.66-.92,13.32-1.85,19.98-2.77-6.66.92-13.32,1.85-19.98,2.77Z"/>
      <path class="cls-19" d="M791.33,794.76c-.76-.77-1.51-1.53-2.27-2.3,2.76-.87,5.52-1.74,8.28-2.61.62-.07,1.24-.15,1.85-.22,1.49-.34,2.98-.69,4.47-1.03.54-.1,1.08-.19,1.62-.29,1.62-.35,3.24-.7,4.86-1.05-.06.99-.12,1.98-.18,2.97-6.21,1.51-12.42,3.02-18.63,4.53Z"/>
      <path class="cls-6" d="M836.41,594.72c.41-6.71.81-13.42,1.22-20.14-.41,6.71-.81,13.42-1.22,20.14Z"/>
      <path class="cls-6" d="M733.88,528.24c-.18,2.26-.36,4.51-.61,7.6,5.1-.37,10.03-.72,14.96-1.07-5.53,1.33-11.06,2.66-16.59,3.99-.58-.75-1.17-1.5-1.75-2.25,1.33-2.76,2.66-5.52,3.99-8.27Z"/>
      <path class="cls-6" d="M782.09,481.85c-7.21,1.23-14.42,2.46-21.63,3.69,7.21-1.23,14.42-2.46,21.63-3.69Z"/>
      <path class="cls-6" d="M789.28,651.41c-.46,6.19-.93,12.37-1.39,18.56.46-6.19.93-12.37,1.39-18.56Z"/>
      <path class="cls-6" d="M615.63,617.93c6.68,2.63,13.36,5.26,20.04,7.88-7.86.38-14.77-1.67-20.04-7.88Z"/>
      <path class="cls-6" d="M790.59,628.28c-.35,6.21-.71,12.42-1.06,18.62.35-6.21.71-12.42,1.06-18.62Z"/>
      <path class="cls-6" d="M834.67,626.97c.44-6.17.89-12.35,1.33-18.52-.44,6.17-.89,12.35-1.33,18.52Z"/>
      <path class="cls-6" d="M743.36,489.77c-1.91,7.33-3.81,14.66-5.72,21.99,1.91-7.33,3.81-14.66,5.72-21.99Z"/>
      <path class="cls-6" d="M762.33,611.48c-7.87-1.98-15.74-3.96-23.6-5.94,7.66,1.05,15.33,2.06,22.97,3.25.34.05.43,1.76.63,2.69Z"/>
      <path class="cls-6" d="M837.9,570.08c.42-5.68.83-11.36,1.25-17.05-.42,5.68-.83,11.36-1.25,17.05Z"/>
      <path class="cls-6" d="M833.15,656.22c.42-6.17.84-12.35,1.26-18.52-.42,6.17-.84,12.35-1.26,18.52Z"/>
      <path class="cls-6" d="M671.24,500.5c-5.66-2.07-11.32-4.15-16.98-6.22,5.66,2.07,11.32,4.15,16.98,6.22Z"/>
      <path class="cls-6" d="M587.83,523.7c-2.34,5.87-4.67,11.74-7.01,17.61,2.34-5.87,4.67-11.74,7.01-17.61Z"/>
      <path class="cls-6" d="M809.96,790.23c.06-.99.12-1.98.18-2.97,3.52-.8,7.03-1.59,10.54-2.38.23.97.47,1.93.7,2.9-3.81.82-7.62,1.64-11.43,2.46Z"/>
      <path class="cls-6" d="M800.14,415.86c-.38,4.66-.75,9.33-1.13,13.99.38-4.66.75-9.33,1.13-13.99Z"/>
      <path class="cls-6" d="M801.85,383.57c-.4,4.65-.81,9.3-1.21,13.96-1.68-4.83-3.51-9.68,1.21-13.96Z"/>
      <path class="cls-19" d="M692.31,747.13c.22-7.74.44-15.47.65-23.21-.22,7.74-.44,15.47-.65,23.21Z"/>
      <path class="cls-15" d="M246.62,815.24c4.42.85,8.84,1.7,13.26,2.56-4.42-.85-8.84-1.7-13.26-2.56Z"/>
      <path class="cls-15" d="M304.64,822.43c.48.44.95.88,1.43,1.32-5.4-.7-10.79-1.4-16.19-2.09,1.82-.21,3.65-.43,5.48-.64,3.09.47,6.19.94,9.28,1.42Z"/>
      <path class="cls-6" d="M851.27,371.46c-3.61.29-7.22.59-10.83.88,3.41-2.71,6.71-6.92,10.83-.88Z"/>
      <path class="cls-6" d="M675.68,476.23c1.41,4.09,2.82,8.19,4.23,12.28-1.41-4.09-2.82-8.19-4.23-12.28Z"/>
      <path class="cls-6" d="M628.12,461.01c3.55,0,7.09,0,10.64,0-3.55,0-7.09,0-10.64,0Z"/>
      <path class="cls-15" d="M335.36,825.55c1.61.55,3.22,1.1,4.83,1.64-4.26-.37-8.52-.73-12.78-1.1,0,0,.26-.61.26-.61,2.56.02,5.13.05,7.69.07Z"/>
      <path class="cls-9" d="M730.83,511.51c.17-2.59.33-5.17.5-7.76,6.01,2.98,1.76,5.31-.5,7.76Z"/>
      <path class="cls-6" d="M750.14,642.5c1.68-3.92,3.36-7.84,5.03-11.76-1.68,3.92-3.36,7.84-5.03,11.76Z"/>
      <path class="cls-6" d="M796.98,475.88c-.62,5.84-5.27,4.2-8.75,4.72,2.92-1.57,5.83-3.15,8.75-4.72Z"/>
      <path class="cls-9" d="M731.35,497.56c-.3-3.09-.61-6.18-.91-9.26.3,3.09.61,6.18.91,9.26Z"/>
      <path class="cls-6" d="M794.44,682.58c3.12-.42,6.23-.84,9.35-1.26-3.12.42-6.23.84-9.35,1.26Z"/>
      <path class="cls-6" d="M611.14,462.37c3.14-.28,6.27-.56,9.41-.84-3.14.28-6.27.56-9.41.84Z"/>
      <path class="cls-6" d="M723.13,593.61c-1.87-2.77-3.75-5.54-5.62-8.31,1.87,2.77,3.75,5.54,5.62,8.31Z"/>
      <path class="cls-6" d="M593.88,514.42c-1.84,2.77-3.68,5.54-5.52,8.31,1.84-2.77,3.68-5.54,5.52-8.31Z"/>
      <path class="cls-6" d="M653.99,463.28c3.6,1.22,7.19,2.44,10.79,3.66-3.6-1.22-7.19-2.44-10.79-3.66Z"/>
      <path class="cls-6" d="M886.77,461.93c-3.13.89-6.26,1.77-9.39,2.66,3.13-.89,6.26-1.77,9.39-2.66Z"/>
      <path class="cls-6" d="M701.83,628.83c2.35,1.73,4.69,3.47,7.04,5.2-4.51,1.2-6.76-.67-7.04-5.2Z"/>
      <path class="cls-6" d="M521.35,582.36c.3,2.61.6,5.22.89,7.83-.3-2.61-.6-5.22-.89-7.83Z"/>
      <path class="cls-15" d="M253.13,811.32c-3.84-.68-7.68-1.35-11.53-2.03,3.84.68,7.68,1.35,11.53,2.03Z"/>
      <path class="cls-6" d="M519.96,570.01c.29,2.62.59,5.24.88,7.86-.29-2.62-.59-5.24-.88-7.86Z"/>
      <path class="cls-6" d="M651.35,493.65c-2.61-.35-5.22-.69-7.83-1.04,2.61.35,5.22.69,7.83,1.04Z"/>
      <path class="cls-9" d="M728.31,523.79c.49-1.54.97-3.08,1.46-4.62,1.53.52,3.06,1.03,4.59,1.55.13,1.11.27,2.22.4,3.33,0,0-.18-.09-.18-.09-2.09-.06-4.18-.11-6.27-.17Z"/>
      <path class="cls-6" d="M758.11,624.04c1.16-2.81,2.32-5.62,3.49-8.43-1.16,2.81-2.32,5.62-3.49,8.43Z"/>
      <path class="cls-6" d="M523.03,597.73c1.13,1.05,2.27,2.11,3.4,3.16-.98.62-1.95,1.24-2.93,1.86-.16-1.67-.31-3.34-.47-5.02Z"/>
      <path class="cls-6" d="M720.32,639.67c2.61.9,5.23,1.8,7.84,2.7-2.61-.9-5.23-1.8-7.84-2.7Z"/>
      <path class="cls-6" d="M643.24,461.54c2.64.37,5.28.74,7.91,1.11-2.64-.37-5.28-.74-7.91-1.11Z"/>
      <path class="cls-6" d="M604.73,457.49c1.1,1.7,2.2,3.4,3.3,5.11-1.77.1-3.53.21-5.3.31.67-1.81,1.33-3.61,2-5.42Z"/>
      <path class="cls-15" d="M278.95,814.42c-2.77-.46-5.54-.91-8.31-1.37,2.77.46,5.54.91,8.31,1.37Z"/>
      <path class="cls-10" d="M324.59,819.49c0-.43-.02-.85-.07-1.27,2.12.23,4.24.47,6.36.7-2.1.19-4.19.38-6.29.57Z"/>
      <path class="cls-7" d="M333.99,882.04l5.97.35c-1.99-.12-3.98-.23-5.97-.35Z"/>
      <path class="cls-15" d="M228.17,812.13c2.43.54,4.85,1.08,7.28,1.62-2.43-.54-4.85-1.08-7.28-1.62Z"/>
      <path class="cls-6" d="M806.73,680.91c2.11-.33,4.22-.66,6.33-.99-2.11.33-4.22.66-6.33.99Z"/>
      <path class="cls-6" d="M835.99,372.92c-2.09.4-4.18.81-6.27,1.21,2.09-.4,4.18-.81,6.27-1.21Z"/>
      <path class="cls-6" d="M819.04,375.92c-2.08.45-4.16.89-6.24,1.34,2.08-.45,4.16-.89,6.24-1.34Z"/>
      <path class="cls-6" d="M758.07,485.87c-2.84.59-5.69,1.19-8.53,1.78,2.84-.59,5.69-1.19,8.53-1.78Z"/>
      <path class="cls-6" d="M890.82,494.73l.66-6.37c-.22,2.12-.44,4.25-.66,6.37Z"/>
      <path class="cls-6" d="M892.32,476.25c.22-2.12.43-4.25.65-6.38-.22,2.12-.43,4.25-.65,6.38Z"/>
      <path class="cls-19" d="M687.41,749.74c1.62.03,3.25.07,4.87.1-.99,1.03-1.99,2.07-2.98,3.1-.63-1.07-1.26-2.13-1.89-3.2Z"/>
      <path class="cls-6" d="M732.78,602.29c-2-1.57-4.01-3.14-6.01-4.71,2,1.57,4.01,3.14,6.01,4.71Z"/>
      <path class="cls-7" d="M330.13,870.71c-.27,2.38-.54,4.76-.81,7.15.27-2.38.54-4.76.81-7.15Z"/>
      <path class="cls-22" d="M811.14,855.36c.13,1.04.25,2.07.38,3.11,0,0-.67.16-.67.16-1.36.2-2.72.4-4.08.61-1.36-.63-2.72-1.25-4.09-1.88,1.01-.76,2.02-1.53,3.04-2.3,1.81.1,3.62.2,5.42.31Z"/>
      <path class="cls-6" d="M734.76,524.04c-.13-1.11-.27-2.22-.4-3.33.82-1.6,1.65-3.21,2.47-4.81-.69,2.71-1.38,5.43-2.07,8.14Z"/>
      <path class="cls-6" d="M679.18,500.37c-.26,4.48-2.19,4.23-4.91,1.73,1.64-.58,3.27-1.15,4.91-1.73Z"/>
      <path class="cls-6" d="M606.45,611.58c1.78,1.34,3.57,2.68,5.36,4.02-1.78-1.34-3.57-2.68-5.36-4.02Z"/>
      <path class="cls-15" d="M267.81,818.83c1.49.25,2.99.49,4.48.74-1.49-.25-2.99-.49-4.48-.74Z"/>
      <path class="cls-6" d="M671.31,471.27c1.43,1.62,2.87,3.24,4.3,4.86-1.43-1.62-2.87-3.24-4.3-4.86Z"/>
      <path class="cls-6" d="M893.37,462.08c-1.22-.21-2.43-.42-3.65-.64,1.07-.68,2.13-1.35,3.2-2.03.15.89.3,1.78.45,2.67Z"/>
      <path class="cls-6" d="M826.76,374.48c-1.59.38-3.17.75-4.76,1.13,1.59-.38,3.17-.75,4.76-1.13Z"/>
      <path class="cls-6" d="M731.1,642.79c1.59.36,3.18.71,4.77,1.07l-4.77-1.07Z"/>
      <path class="cls-6" d="M714.84,580.09c-.58-1.87-1.16-3.75-1.74-5.62.58,1.87,1.16,3.75,1.74,5.62Z"/>
      <path class="cls-15" d="M264.45,812.15c-2.03-.16-4.05-.33-6.08-.49,2.03.16,4.05.33,6.08.49Z"/>
      <path class="cls-15" d="M277.4,819.95c.87-.22,1.75-.44,2.62-.66.99.52,1.97,1.05,2.96,1.58-1.86-.31-3.72-.61-5.58-.92Z"/>
      <path class="cls-6" d="M865.94,518.24c1.87-.59,3.74-1.18,5.6-1.77-1.87.59-3.74,1.18-5.6,1.77Z"/>
      <path class="cls-6" d="M606.46,502.2c-1.52,1.05-3.04,2.09-4.56,3.14,1.52-1.05,3.04-2.09,4.56-3.14Z"/>
      <path class="cls-19" d="M694.47,710.46c-.54,1.06-1.09,2.12-1.63,3.18-.14-1.17-.28-2.34-.42-3.52.68.11,1.37.22,2.05.34Z"/>
      <path class="cls-6" d="M737.49,605.13c-1.57-.94-3.14-1.89-4.71-2.83,1.57.94,3.14,1.89,4.71,2.83Z"/>
      <path class="cls-15" d="M289.09,815.21c-1.3-.08-2.61-.17-3.91-.26,1.3.08,2.61.17,3.91.26Z"/>
      <path class="cls-6" d="M746.61,488.17c-1.06.5-2.12,1-3.18,1.51,1.06-.5,2.12-1,3.18-1.51Z"/>
      <path class="cls-15" d="M237.36,813.77c1.36.35,2.72.69,4.08,1.04-1.36-.35-2.72-.69-4.08-1.04Z"/>
      <path class="cls-22" d="M53.23,822.33c.72.76,1.44,1.52,2.16,2.28-1.15.29-2.31.57-3.46.86.43-1.05.87-2.09,1.3-3.14Z"/>
      <path class="cls-19" d="M775.91,794.75c-1.26.31-2.53.63-3.79.94,1.26-.31,2.53-.63,3.79-.94Z"/>
      <path class="cls-6" d="M589.92,592.52c.84,1.23,1.68,2.45,2.51,3.68-.84-1.23-1.68-2.45-2.51-3.68Z"/>
      <path class="cls-7" d="M806.77,859.23c1.36-.2,2.72-.41,4.08-.61-1.36.2-2.72.41-4.08.61Z"/>
      <path class="cls-7" d="M250.44,867.05c.1-1.01.21-2.03.31-3.04-.1,1.01-.21,2.03-.31,3.04Z"/>
      <path class="cls-6" d="M594.39,598.87c.94,1.14,1.88,2.29,2.82,3.43-.94-1.14-1.88-2.29-2.82-3.43Z"/>
      <path class="cls-6" d="M597.39,510c-.95,1.17-1.9,2.34-2.85,3.51.95-1.17,1.9-2.34,2.85-3.51Z"/>
      <path class="cls-6" d="M808.29,377.63c-1.08.35-2.16.7-3.24,1.05,1.08-.35,2.16-.7,3.24-1.05Z"/>
      <path class="cls-7" d="M332.32,851.83c-.51.99-1.02,1.98-1.53,2.96.51-.99,1.02-1.98,1.53-2.96Z"/>
      <path class="cls-6" d="M760.58,533.04c1.51-.24,3.01-.47,4.52-.71-1.51.24-3.01.47-4.52.71Z"/>
      <path class="cls-15" d="M350.77,827.16c.02.43.02.86.02,1.29-1.55-.16-3.1-.31-4.65-.47,1.54-.27,3.09-.55,4.63-.82Z"/>
      <path class="cls-6" d="M788.15,480.62c-.96.15-1.92.29-2.88.44.96-.15,1.92-.29,2.88-.44Z"/>
      <path class="cls-19" d="M788.27,795.62c1.02-.29,2.03-.57,3.05-.86-1.02.29-2.03.57-3.05.86Z"/>
      <path class="cls-19" d="M700.37,709.88c.96-.5,1.91-1.01,2.87-1.51-.96.5-1.91,1.01-2.87,1.51Z"/>
      <path class="cls-6" d="M755.23,533.87c1.26-.23,2.51-.45,3.77-.68-1.26.23-2.51.45-3.77.68Z"/>
      <path class="cls-15" d="M235.14,808.65c-.53-.05-1.07-.1-1.6-.15.53.05,1.07.1,1.6.15Z"/>
      <path class="cls-6" d="M748.43,643.96c.49-.34.99-.69,1.48-1.03-.49.34-.99.69-1.48,1.03Z"/>
      <path class="cls-6" d="M669.62,469.9c.57.46,1.14.93,1.71,1.39-.57-.46-1.14-.92-1.71-1.39Z"/>
      <path class="cls-6" d="M667.94,468.73c.56.39,1.11.78,1.67,1.17-.56-.39-1.11-.78-1.67-1.17Z"/>
      <path class="cls-6" d="M666.49,467.89c.38.22.76.44,1.13.66-.53.04-.91-.18-1.13-.66Z"/>
      <path class="cls-19" d="M692.32,704.08c-.4-.54-.8-1.07-1.19-1.61.4.54.8,1.07,1.19,1.61Z"/>
      <path class="cls-6" d="M712.74,636.24c.68.37,1.35.75,2.03,1.12-.68-.37-1.35-.75-2.03-1.12Z"/>
      <path class="cls-6" d="M709.71,634.53c.67.42,1.34.84,2.02,1.26-.67-.42-1.34-.84-2.02-1.26Z"/>
      <path class="cls-6" d="M893.27,466.86c.06-.55.12-1.11.18-1.66-.06.55-.12,1.11-.18,1.66Z"/>
      <path class="cls-6" d="M580.07,546.81c-.07.55-.14,1.1-.21,1.65.07-.55.14-1.1.21-1.65Z"/>
      <path class="cls-6" d="M580.46,543.58c.1.41.25.83.28,1.25,0,.13-.32.29-.49.43.07-.56.14-1.12.21-1.68Z"/>
      <path class="cls-6" d="M768.15,531.82c.55-.06,1.09-.12,1.64-.18-.55.06-1.09.12-1.64.18Z"/>
      <path class="cls-6" d="M505.26,576.19c.29-.64.58-1.29.86-1.93-.29.64-.58,1.29-.86,1.93Z"/>
      <path class="cls-19" d="M693.03,721.04c.26-.63.52-1.27.78-1.9-.26.63-.52,1.27-.78,1.9Z"/>
      <path class="cls-6" d="M669.6,624.06c.46-.15.92-.31,1.38-.46-.46.15-.92.31-1.38.46Z"/>
      <path class="cls-6" d="M715.82,637.77c.69.36,1.39.71,2.08,1.07-.69-.36-1.39-.71-2.08-1.07Z"/>
      <path class="cls-6" d="M605.26,456.05c-.16.41-.31.83-.47,1.24-.14-.53.02-.94.47-1.24Z"/>
      <path class="cls-6" d="M601.77,607.11c.47.48.94.96,1.4,1.43-.47-.48-.94-.96-1.4-1.43Z"/>
      <path class="cls-6" d="M803.46,378.98c-.47.48-.94.96-1.41,1.45.47-.48.94-.96,1.41-1.45Z"/>
      <path class="cls-15" d="M273.78,819.78c.5.05,1,.1,1.5.15-.5-.05-1-.1-1.5-.15Z"/>
      <path class="cls-6" d="M727.04,533.1c.36-.56.73-1.12,1.09-1.68-.36.56-.73,1.12-1.09,1.68Z"/>
      <path class="cls-13" d="M287.74,821.45c.24-.35.48-.7.72-1.05.19.39.37.78.56,1.17,0,0-.66.22-.66.22l-.61-.33Z"/>
      <path class="cls-15" d="M319.15,825.21s.33.03.33.03c-.11,0-.22-.02-.33-.03Z"/>
      <path class="cls-6" d="M799.19,789.63c-.62.08-1.24.15-1.85.22.62-.08,1.24-.15,1.85-.22Z"/>
      <path class="cls-6" d="M503.49,582.32c.25-.74.5-1.49.75-2.23-.25.74-.5,1.49-.75,2.23Z"/>
      <path class="cls-6" d="M805.28,788.31c-.54.1-1.08.19-1.62.29.54-.1,1.08-.19,1.62-.29Z"/>
      <path class="cls-14" d="M89.3,579.63c-10.73,1.21-20.29,2.47-29.89,3.18-1.3.1-4.03-2.54-4.04-3.93-.25-23.94-.18-47.89-.18-72.71,11.23,24.17,22.32,48.06,34.12,73.46Z"/>
      <path class="cls-16" d="M649.64,577.27c-4.3-1.95-9.21-3.13-12.79-5.99-11.73-9.36-12.16-32.44-1.26-42.84,12.02-11.47,27.37-9.24,36.02,5.18,6.04,10.07,4.75,20.03-.42,29.87-4.41,8.4-11.31,12.95-21.55,13.78Z"/>
      <path class="cls-25" d="M990.93,566.86c-15.43,1.29-29.59,2.58-43.78,3.43-.99.06-3.31-3.29-3.09-4.76.98-6.48,1.74-13.25,4.33-19.15,2.98-6.77,7.61-12.84,16.78-12.03,9.56.85,17.7,3.96,21.17,13.67,2.02,5.64,2.89,11.69,4.58,18.84Z"/>
      <path class="cls-10" d="M304.64,822.43c-3.09-.47-6.19-.95-9.28-1.42,3.09.47,6.19.95,9.28,1.42Z"/>
      <path class="cls-10" d="M335.36,825.55c-2.56-.02-5.13-.05-7.69-.07,2.56.02,5.13.05,7.69.07Z"/>
      <path class="cls-25" d="M443.69,726.45c3.13.2,4.76,0,6.19.45,3.01.92,8.31,1.96,8.43,3.33.36,3.99-.23,9.01-2.5,12.11-4.87,6.65-12.46,7.75-20.19,5.92-5.41-1.29-9.33-4.59-9.23-10.72.09-5.76,3.82-8.8,8.99-10.04,3.21-.77,6.58-.84,8.32-1.05Z"/>
      <path class="cls-25" d="M644.1,726.41c2.77.17,4.14-.03,5.3.39,3.35,1.2,9.43,2.72,9.39,3.97-.14,4.43-1.3,9.67-4.04,12.99-4.53,5.49-11.54,6.15-18.36,4.66-5.41-1.18-9.42-4.35-9.68-10.3-.27-6.07,3.57-9.33,9.05-10.63,3.19-.75,6.53-.85,8.34-1.07Z"/>
      <path class="cls-9" d="M731.86,723.93c1.65-12.44,8.06-18.89,17.86-18.55,9.28.32,14.81,6.54,16.01,18.55h-33.87Z"/>
      <path class="cls-16" d="M289.06,748.96c-11.35-.02-19.98-9.45-19.95-21.78.04-12.42,8.63-21.84,19.88-21.79,11.07.05,19.94,9.72,20.06,21.87.12,12.18-8.67,21.72-20,21.7Z"/>
      <path class="cls-20" d="M286.51,876.03c-1.87-2.97-5.35-6.07-5.13-8.88.21-2.63,4.03-6.5,6.82-7.05,4.55-.9,8.03,2.76,7.28,7.42-.49,3.01-3.55,5.6-5.46,8.38-1.17.04-2.34.09-3.5.13Z"/>
      <path class="cls-20" d="M196.18,857.47c-5.46,3.1-8.48,6.12-11.7,6.35-4.89.34-6.98-3.69-6.55-8.36.46-5.07,3.71-8.63,8.57-7.37,3.02.78,5.19,4.83,9.69,9.39Z"/>
      <path class="cls-20" d="M921.61,823.95c-4.05.96-8.1,1.93-12.16,2.89-.5-.72-.99-1.44-1.49-2.16,2.11-1.96,3.94-4.89,6.41-5.6,2.19-.62,5.08,1.23,7.67,1.99-.15.96-.29,1.92-.44,2.88Z"/>
      <path class="cls-20" d="M410.85,870.78c2.62-1.27,5.21-3.47,7.86-3.52,2.22-.04,4.5,2.41,6.75,3.75-.28.65-.56,1.3-.83,1.95h-12.94l-.83-2.18Z"/>
      <path class="cls-20" d="M722.07,860.94c.76-6.3,4.11-9.5,10.64-8.93,1.45,3.4,3.77,6.75,3.96,10.22.08,1.51-4.56,4.93-6.4,4.53-3.01-.66-5.49-3.75-8.19-5.82Z"/>
    </g>
  </g>
</svg>